<?xml version="1.0" standalone="no"?>
<!DOCTYPE svg PUBLIC "-//W3C//DTD SVG 20010904//EN"
 "http://www.w3.org/TR/2001/REC-SVG-20010904/DTD/svg10.dtd">
<svg version="1.0" xmlns="http://www.w3.org/2000/svg"
 width="600.000000pt" height="629.000000pt" viewBox="0 0 600.000000 629.000000"
 preserveAspectRatio="xMidYMid meet">

<g transform="translate(0.000000,629.000000) scale(0.100000,-0.100000)"
fill="#000000" stroke="none">
<path d="M1347 6183 c-4 -3 -7 -698 -7 -1543 l0 -1537 -83 -63 c-413 -319
-678 -821 -716 -1358 -41 -581 204 -1175 640 -1549 127 -109 167 -135 190
-122 18 9 19 50 19 1532 l0 1523 58 41 c360 255 641 695 732 1146 80 396 29
817 -144 1182 -104 218 -218 377 -397 550 -165 160 -264 227 -292 198z"/>
<path d="M4316 6174 c-3 -9 -6 -703 -6 -1544 l0 -1528 -56 -42 c-322 -243
-574 -615 -678 -1001 -54 -202 -61 -258 -60 -509 0 -217 2 -245 27 -363 64
-299 170 -535 350 -775 86 -115 237 -268 347 -351 76 -57 84 -61 104 -48 l21
14 3 1521 2 1521 83 63 c178 135 371 355 485 554 468 819 264 1859 -478 2433
-92 71 -132 86 -144 55z"/>
<path d="M2840 6160 c-20 -20 -20 -29 -20 -1548 l0 -1528 -78 -62 c-91 -71
-266 -249 -335 -339 -260 -340 -402 -789 -384 -1213 24 -548 264 -1036 681
-1386 89 -75 105 -84 136 -82 l35 3 3 1522 2 1522 68 51 c374 284 629 692 724
1161 20 100 23 142 23 354 -1 222 -3 249 -27 365 -81 377 -240 678 -497 943
-96 99 -232 216 -283 243 -25 13 -29 13 -48 -6z"/>
</g>
</svg>
