<?xml version="1.0" standalone="no"?>
<!DOCTYPE svg PUBLIC "-//W3C//DTD SVG 1.1//EN"
"http://www.w3.org/Graphics/SVG/1.1/DTD/svg11.dtd">

<svg height="75" transform="translate(0.5,0.5)" version="1.1" width="80" xmlns="http://www.w3.org/2000/svg" xmlns:nch="http://www.nchsoftware.com/drawpad/" xmlns:xlink="http://www.w3.org/1999/xlink"><rect fill="rgb(255,255,255)" fill-opacity="0.000" height="75" id="background" width="80" x="0" y="0"/><g class="Layer"><path d="M26,23 C18,38 17,40 17,48 C17,48 17,56 17,56 C17,56 25,42 25,42 C30,33 33,28 35,28 C36,28 39,33 43,43 C46,52 50,59 51,60 C54,63 59,63 59,61 C59,59 54,46 43,19 C40,12 37,7 36,7 C35,6 31,12 26,23 C26,23 26,23 26,23" fill="rgb(0,0,0)" fill-opacity="1.000" fill-rule="evenodd" nch:path="25.8,22.7,17.6,38.2,17.0,40.0 17.1,47.6,17.1,47.6,17.1,55.6 17.1,55.6,17.1,55.6,24.9,41.9 24.9,41.9,29.6,33.5,33.3,28.2 34.7,28.2,36.0,28.2,38.6,32.8 42.7,43.3,45.8,51.7,49.7,59.4 50.9,60.4,53.9,62.8,59.2,62.9 59.2,60.6,59.2,58.9,54.0,45.5 43.1,19.2,40.4,12.5,37.3,6.9 36.3,6.5,35.3,6.3,31.4,12.4 25.8,22.7,25.8,22.7,25.8,22.7 25.8,22.7," nch:penfill="rgba(0,0,0,255)"/><path d="M57,31 C53,33 52,34 53,38 C54,40 55,43 55,45 C57,47 57,47 63,46 C66,45 69,44 70,43 C71,41 65,28 63,28 C62,28 59,29 57,31 C57,31 57,31 57,31" fill="rgb(0,0,0)" fill-opacity="1.000" fill-rule="evenodd" nch:path="56.7,30.9,52.8,33.3,52.4,34.2 53.1,37.7,53.6,40.0,54.6,43.1 55.4,44.5,56.6,47.1,57.1,47.2 62.9,46.0,66.3,45.4,69.3,44.1 69.7,43.2,70.6,41.1,64.5,28.2 62.6,28.2,61.8,28.2,59.2,29.4 56.7,30.9,56.7,30.9,56.7,30.9 56.7,30.9," nch:penfill="rgba(0,0,0,255)"/><path d="M25,46 C24,49 22,51 22,52 C22,52 26,50 30,48 C34,45 38,43 38,43 C39,44 34,47 29,50 C17,58 18,57 18,58 C19,59 41,52 43,50 C44,50 43,47 41,45 C39,42 37,41 33,41 C29,40 28,41 25,46 C25,46 25,46 25,46" fill="rgb(0,0,0)" fill-opacity="1.000" fill-rule="evenodd" nch:path="25.3,45.6,23.8,48.6,22.4,51.4 22.4,51.7,22.4,52.2,25.8,50.4 30.0,47.6,34.1,44.9,37.9,42.8 38.2,43.2,38.6,43.6,34.4,46.6 28.9,50.1,17.0,57.9,17.8,57.3 18.5,58.1,19.1,58.7,41.5,51.6 43.3,50.3,43.8,49.8,42.8,47.5 41.1,45.2,38.6,41.9,37.0,40.9 33.0,40.6,28.5,40.3,28.0,40.6 25.3,45.6,25.3,45.6,25.3,45.6 25.3,45.6," nch:penfill="rgba(0,0,0,255)"/></g></svg>