<?xml version="1.0"?>
<svg width="960" height="960" xmlns="http://www.w3.org/2000/svg" xmlns:svg="http://www.w3.org/2000/svg" transform="translate(0.5,0.5)" version="1.1">
 <g class="layer">
  <title>Layer 1</title>
  <rect fill="rgb(255,255,255)" fill-opacity="0" height="75" id="background" width="80" x="0" y="0"/>
  <g class="Layer" id="svg_1">
   <path d="m165.85,278.72c-143.87,254.99 -161.85,288.99 -161.85,424.99c0,0 0,136 0,136c0,0 143.87,-237.99 143.87,-237.99c89.92,-153 143.87,-237.99 179.83,-237.99c17.98,0 71.93,85 143.87,254.99c53.95,153 125.88,271.99 143.87,288.99c53.95,51 143.87,51 143.87,17c0,-34 -89.92,-254.99 -287.73,-713.98c-53.95,-119 -107.9,-203.99 -125.88,-203.99c-17.98,-17 -89.92,85 -179.83,271.99c0,0 0,0 0,0" fill="rgb(0,0,0)" fill-rule="evenodd" id="svg_2"/>
   <path d="m723.33,414.71c-71.93,34 -89.92,51 -71.93,119c17.98,34 35.97,85 35.97,119c35.97,34 35.97,34 143.87,17c53.95,-17 107.9,-34 125.88,-51c17.98,-34 -89.92,-254.99 -125.88,-254.99c-17.98,0 -71.93,17 -107.9,51c0,0 0,0 0,0" fill="rgb(0,0,0)" fill-rule="evenodd" id="svg_3"/>
   <path d="m147.87,669.71c-17.98,51 -53.95,85 -53.95,102c0,0 71.93,-34 143.87,-68c71.93,-51 143.87,-85 143.87,-85c17.98,17 -71.93,68 -161.85,119c-215.8,136 -197.81,119 -197.81,136c17.98,17 413.61,-102 449.58,-136c17.98,0 0,-51 -35.97,-85c-35.97,-51 -71.93,-68 -143.87,-68c-71.93,-17 -89.92,0 -143.87,85c0,0 0,0 0,0" fill="rgb(0,0,0)" fill-rule="evenodd" id="svg_4"/>
  </g>
 </g>

</svg>