<?xml version="1.0" standalone="no"?>
<!DOCTYPE svg PUBLIC "-//W3C//DTD SVG 20010904//EN"
 "http://www.w3.org/TR/2001/REC-SVG-20010904/DTD/svg10.dtd">
<svg version="1.0" xmlns="http://www.w3.org/2000/svg"
 width="1024.000000pt" height="1024.000000pt" viewBox="0 0 1024.000000 1024.000000"
 preserveAspectRatio="xMidYMid meet">

<g transform="translate(0.000000,1024.000000) scale(0.100000,-0.100000)"
fill="#000000" stroke="none">
<path d="M5034 9311 c-17 -10 -40 -31 -52 -46 l-22 -28 0 -1069 0 -1069 -267
272 c-148 150 -286 285 -307 301 -71 51 -177 28 -235 -53 -37 -50 -42 -117
-13 -160 29 -44 895 -920 924 -935 28 -15 85 -19 113 -8 31 12 917 936 932
973 19 44 7 90 -38 145 -53 63 -134 84 -203 51 -17 -8 -155 -144 -306 -302
l-275 -286 -5 1074 c-5 1015 -6 1075 -23 1101 -39 57 -159 78 -223 39z"/>
<path d="M1772 5995 c-171 -37 -341 -173 -421 -335 -76 -155 -72 -56 -69
-1708 l3 -1477 28 -80 c70 -196 224 -345 424 -411 l88 -29 3105 0 c2950 0
3108 1 3170 18 224 62 397 221 467 430 27 81 27 85 25 324 l-1 241 222 4 c199
4 228 7 277 26 103 41 191 131 239 244 l26 63 3 637 c3 694 2 709 -54 820 -38
75 -126 158 -209 199 l-70 34 -217 3 -218 4 1 236 c1 229 0 240 -25 317 -55
170 -172 308 -327 384 -159 77 119 71 -3321 70 -2576 0 -3093 -3 -3146 -14z
m6173 -308 c62 -3 92 -10 133 -31 70 -35 128 -95 161 -165 l26 -56 0 -1450 0
-1450 -22 -48 c-32 -69 -116 -149 -188 -178 l-60 -24 -3060 0 -3060 0 -55 26
c-82 39 -135 90 -172 167 l-33 67 0 1450 0 1450 22 47 c29 63 96 134 158 166
l50 27 600 5 c671 6 5375 3 5500 -3z m1034 -1023 c17 -14 35 -42 41 -62 8 -25
10 -229 8 -632 -3 -538 -5 -598 -20 -626 -26 -47 -55 -54 -243 -55 l-170 -2
-3 702 -2 701 179 0 c178 0 180 0 210 -26z"/>
<path d="M5176 5349 c-14 -11 -106 -125 -204 -252 -98 -128 -343 -447 -546
-710 -202 -263 -374 -490 -382 -505 -36 -69 0 -151 74 -172 22 -6 175 -10 375
-10 l337 0 -5 -22 c-3 -13 -57 -236 -120 -496 -63 -260 -115 -484 -115 -496 0
-60 89 -111 149 -86 19 8 67 58 128 134 54 66 176 216 271 331 96 116 267 323
381 460 114 138 260 313 324 389 112 134 117 141 117 185 0 26 -7 56 -16 69
-35 51 -45 52 -454 52 l-382 0 7 33 c4 17 58 245 121 505 63 260 114 487 114
505 0 84 -108 138 -174 86z"/>
</g>
</svg>
