<?xml version="1.0" standalone="no"?>
<!DOCTYPE svg PUBLIC "-//W3C//DTD SVG 20010904//EN"
 "http://www.w3.org/TR/2001/REC-SVG-20010904/DTD/svg10.dtd">
<svg version="1.0" xmlns="http://www.w3.org/2000/svg"
 width="1024.000000pt" height="1024.000000pt" viewBox="0 0 1024.000000 1024.000000"
 preserveAspectRatio="xMidYMid meet">

<g transform="translate(0.000000,1024.000000) scale(0.100000,-0.100000)"
fill="#000000" stroke="none">
<path d="M5065 9359 c-40 -22 -887 -874 -907 -913 -39 -76 -5 -181 73 -221 36
-19 107 -22 140 -5 13 7 149 136 302 288 l277 277 1 -70 c0 -39 1 -518 2
-1067 l2 -996 30 -43 c73 -104 215 -99 279 11 21 35 21 41 18 1110 l-3 1075
273 -278 c150 -153 287 -287 303 -298 19 -12 48 -19 80 -19 113 0 194 102 165
210 -10 38 -65 97 -443 482 -237 242 -443 446 -458 454 -33 16 -105 18 -134 3z"/>
<path d="M1854 6010 c-68 -10 -116 -26 -194 -66 -158 -80 -265 -204 -327 -379
l-28 -80 0 -1495 0 -1495 28 -80 c64 -180 178 -308 351 -391 145 -70 -120 -65
3286 -62 l3075 3 80 27 c228 78 390 246 445 464 17 66 20 110 20 300 l0 222
223 4 c202 4 227 6 280 27 111 44 196 132 241 249 21 56 21 71 24 685 2 405
-1 649 -8 685 -24 130 -111 252 -219 306 -91 47 -149 56 -352 56 l-187 0 -4
258 c-4 232 -7 263 -26 315 -40 108 -85 181 -162 257 -83 84 -168 134 -290
172 l-75 23 -3065 1 c-1686 1 -3088 -2 -3116 -6z m6151 -325 c121 -31 232
-140 255 -248 7 -36 9 -497 8 -1477 l-3 -1425 -28 -57 c-35 -71 -109 -139
-185 -170 l-57 -23 -3055 0 -3055 0 -62 29 c-73 34 -153 113 -186 183 l-22 48
0 1450 0 1450 22 47 c43 93 141 174 240 197 22 5 1344 9 3053 10 2672 1 3023
-1 3075 -14z m987 -1044 l33 -29 3 -604 c2 -409 0 -615 -8 -640 -6 -20 -22
-46 -37 -57 -24 -19 -39 -21 -209 -21 l-184 0 0 690 0 690 185 0 185 0 32 -29z"/>
<path d="M5170 5334 c-14 -9 -92 -104 -175 -212 -182 -239 -502 -651 -761
-983 -106 -136 -200 -262 -209 -279 -30 -59 -5 -133 58 -167 29 -16 70 -18
395 -21 199 -2 362 -5 362 -7 0 -3 -32 -125 -71 -272 -38 -148 -95 -364 -126
-482 l-56 -213 18 -35 c21 -38 79 -73 121 -73 43 0 75 27 159 134 44 55 285
357 535 670 250 313 470 588 488 612 58 76 52 145 -17 191 -34 23 -35 23 -413
23 -357 0 -379 1 -374 18 37 129 246 970 246 992 0 46 -17 78 -52 100 -39 24
-94 25 -128 4z"/>
</g>
</svg>
