<?xml version="1.0"?>
<svg width="960" height="960" xmlns="http://www.w3.org/2000/svg" xmlns:svg="http://www.w3.org/2000/svg" xmlns:xlink="http://www.w3.org/1999/xlink" transform="translate(0.5,0.5)" version="1.1">
 <g class="layer">
  <title>Layer 1</title>
  <rect fill="rgb(255,255,255)" fill-opacity="0" height="960" id="background" transform="matrix(1, 0, 0, 1, 0, 0)" width="960" x="6" y="3.5"/>
  <g class="Layer" id="svg_1" transform="matrix(2.23263, 0, 0, 3.03658, 3384.04, 0)">
   <line id="svg_2" stroke="rgb(0,0,0)" stroke-width="6" x1="-1359.54" x2="-1326.21" y1="296.18" y2="133.54"/>
   <line id="svg_3" stroke="rgb(0,0,0)" stroke-width="6" x1="-1325.62" x2="-1258.54" y1="132.26" y2="176.74"/>
   <line id="svg_4" stroke="rgb(0,0,0)" stroke-width="6" x1="-1249.93" x2="-1357.19" y1="220.87" y2="297.28"/>
   <line id="svg_5" stroke="rgb(0,0,0)" stroke-width="6" x1="-1235.58" x2="-1342.12" y1="297.28" y2="222.3"/>
   <line id="svg_6" stroke="rgb(0,0,0)" stroke-width="6" x1="-1258.54" x2="-1342.48" y1="178.18" y2="220.51"/>
   <line id="svg_7" stroke="rgb(0,0,0)" stroke-width="6" x1="-1251.36" x2="-1331.36" y1="219.79" y2="179.61"/>
   <line id="svg_8" stroke="rgb(0,0,0)" stroke-width="6" x1="-1270.02" x2="-1335.67" y1="133.34" y2="179.61"/>
   <line id="svg_9" stroke="rgb(0,0,0)" stroke-width="6" x1="-1234.14" x2="-1267.86" y1="295.49" y2="132.26"/>
   <line id="svg_10" stroke="rgb(0,0,0)" stroke-width="6" x1="-1384.46" x2="-1208.31" y1="131.9" y2="132.26"/>
   <line id="svg_11" stroke="rgb(0,0,0)" stroke-width="6" x1="-1325.62" x2="-1208.67" y1="16.03" y2="131.54"/>
   <line id="svg_12" stroke="rgb(0,0,0)" stroke-width="6" x1="-1267.51" x2="-1383.74" y1="16.39" y2="132.26"/>
   <line id="svg_13" stroke="rgb(0,0,0)" stroke-width="6" x1="-1210.11" x2="-1383.74" y1="71.99" y2="73.43"/>
   <line id="svg_14" stroke="rgb(0,0,0)" stroke-width="6" x1="-1265.71" x2="-1210.47" y1="16.03" y2="71.63"/>
   <line id="svg_15" stroke="rgb(0,0,0)" stroke-width="6" x1="-1266.79" x2="-1268.22" y1="132.26" y2="14.59"/>
   <line id="svg_16" stroke="rgb(0,0,0)" stroke-width="6" x1="-1324.9" x2="-1266.07" y1="15.67" y2="15.31"/>
   <line id="svg_17" stroke="rgb(0,0,0)" stroke-width="6" x1="-1326.34" x2="-1325.98" y1="131.9" y2="15.67"/>
   <line id="svg_18" stroke="rgb(0,0,0)" stroke-width="6" x1="-1269.3" x2="-1323.47" y1="129.39" y2="76.3"/>
   <line id="svg_19" stroke="rgb(0,0,0)" stroke-width="6" x1="-1270.02" x2="-1323.83" y1="76.3" y2="129.39"/>
   <line id="svg_20" stroke="rgb(0,0,0)" stroke-width="6" x1="-1366.52" x2="-1366.52" y1="76.3" y2="91.72"/>
   <line id="svg_21" stroke="rgb(0,0,0)" stroke-width="6" x1="-1209.03" x2="-1209.03" y1="72.71" y2="91"/>
   <line id="svg_22" stroke="rgb(0,0,0)" stroke-width="6" x1="-1227.69" x2="-1210.11" y1="90.29" y2="90.29"/>
   <line id="svg_23" stroke="rgb(0,0,0)" stroke-width="6" x1="-1227.69" x2="-1227.33" y1="72.71" y2="90.65"/>
   <line id="svg_24" stroke="rgb(0,0,0)" stroke-width="6" x1="-1208.67" x2="-1208.31" y1="133.34" y2="149.12"/>
   <line id="svg_25" stroke="rgb(0,0,0)" stroke-width="6" x1="-1227.33" x2="-1209.39" y1="149.12" y2="148.76"/>
   <line id="svg_26" stroke="rgb(0,0,0)" stroke-width="6" x1="-1366.88" x2="-1367.24" y1="132.62" y2="149.84"/>
   <line id="svg_27" stroke="rgb(0,0,0)" stroke-width="6" x1="-1384.81" x2="-1367.95" y1="148.04" y2="148.04"/>
   <line id="svg_28" stroke="rgb(0,0,0)" stroke-width="6" x1="-1385.89" x2="-1385.17" y1="130.82" y2="148.04"/>
   <line id="svg_29" stroke="rgb(0,0,0)" stroke-width="6" x1="-1386.25" x2="-1385.53" y1="73.78" y2="92.08"/>
   <line id="svg_30" stroke="rgb(0,0,0)" stroke-width="6" x1="-1366.52" x2="-1384.46" y1="89.21" y2="89.21"/>
   <line id="svg_31" stroke="rgb(0,0,0)" stroke-width="6" x1="-1226.61" x2="-1226.25" y1="133.69" y2="148.4"/>
   <line id="svg_32" stroke="rgb(0,0,0)" stroke-width="6" x1="-1325.62" x2="-1386.61" y1="14.95" y2="75.22"/>
   <symbol id="Symbol0">
    <path d="m0,0l6,0l0,6l-6,0l0,-6z" fill="rgb(0,0,0)" id="svg_33" stroke-linecap="round" stroke-width="0"/>
   </symbol>
   <g id="svg_34" stroke="rgb(0,0,0)" stroke-width="0">
    <use id="svg_35" x="-1327.96" xlink:href="#Symbol0" y="12.67"/>
   </g>
   <symbol id="Symbol1">
    <path d="m0,0l6,0l0,6l-6,0l0,-6z" fill="rgb(0,0,0)" id="svg_36" stroke-linecap="round" stroke-width="0"/>
   </symbol>
   <g id="svg_37" stroke="rgb(0,0,0)" stroke-width="0">
    <use id="svg_38" x="-1270.06" xlink:href="#Symbol1" y="12.67"/>
   </g>
   <symbol id="Symbol2">
    <path d="m0,0l4,0l0,4l-4,0l0,-4z" fill="rgb(0,0,0)" id="svg_39" stroke-linecap="round" stroke-width="0"/>
   </symbol>
   <g id="svg_40" stroke="rgb(0,0,0)" stroke-width="0">
    <use id="svg_41" x="-1210.46" xlink:href="#Symbol2" y="72.07"/>
   </g>
   <symbol id="Symbol3">
    <path d="m0,0l4,0l0,4l-4,0l0,-4z" fill="rgb(0,0,0)" id="svg_42" stroke-linecap="round" stroke-width="0"/>
   </symbol>
   <g id="svg_43" stroke="rgb(0,0,0)" stroke-width="0">
    <use id="svg_44" x="-1211.16" xlink:href="#Symbol3" y="70.47"/>
   </g>
   <symbol id="Symbol4">
    <path d="m0,0l4,0l0,4l-4,0l0,-4z" fill="rgb(0,0,0)" id="svg_45" stroke-linecap="round" stroke-width="0"/>
   </symbol>
   <g id="svg_46" stroke="rgb(0,0,0)" stroke-width="0">
    <use id="svg_47" x="-1211.56" xlink:href="#Symbol4" y="70.27"/>
   </g>
   <symbol id="Symbol5">
    <path d="m0,0l4,0l0,4l-4,0l0,-4z" fill="rgb(0,0,0)" id="svg_48" stroke-linecap="round" stroke-width="0"/>
   </symbol>
   <g id="svg_49" stroke="rgb(0,0,0)" stroke-width="0">
    <use id="svg_50" x="-1212.06" xlink:href="#Symbol5" y="69.77"/>
   </g>
   <symbol id="Symbol6">
    <path d="m0,0l4,0l0,4l-4,0l0,-4z" fill="rgb(0,0,0)" id="svg_51" stroke-linecap="round" stroke-width="0"/>
   </symbol>
   <g id="svg_52" stroke="rgb(0,0,0)" stroke-width="0">
    <use id="svg_53" x="-1210.66" xlink:href="#Symbol6" y="129.27"/>
   </g>
   <symbol id="Symbol7">
    <path d="m0,0l4,0l0,4l-4,0l0,-4z" fill="rgb(0,0,0)" id="svg_54" stroke-linecap="round" stroke-width="0"/>
   </symbol>
   <g id="svg_55" stroke="rgb(0,0,0)" stroke-width="0">
    <use id="svg_56" x="-1209.96" xlink:href="#Symbol7" y="130.17"/>
   </g>
   <symbol id="Symbol8">
    <path d="m0,0l4,0l0,4l-4,0l0,-4z" fill="rgb(0,0,0)" id="svg_57" stroke-linecap="round" stroke-width="0"/>
   </symbol>
   <g id="svg_58" stroke="rgb(0,0,0)" stroke-width="0">
    <use id="svg_59" x="-1228.96" xlink:href="#Symbol8" y="148.07"/>
   </g>
   <symbol id="Symbol9">
    <path d="m0,0l4,0l0,4l-4,0l0,-4z" fill="rgb(0,0,0)" id="svg_60" stroke-linecap="round" stroke-width="0"/>
   </symbol>
   <g id="svg_61" stroke="rgb(0,0,0)" stroke-width="0">
    <use id="svg_62" x="-1229.16" xlink:href="#Symbol9" y="147.57"/>
   </g>
   <symbol id="Symbol10">
    <path d="m0,0l4,0l0,4l-4,0l0,-4z" fill="rgb(0,0,0)" id="svg_63" stroke-linecap="round" stroke-width="0"/>
   </symbol>
   <g id="svg_64" stroke="rgb(0,0,0)" stroke-width="0">
    <use id="svg_65" x="-1209.46" xlink:href="#Symbol10" y="147.87"/>
   </g>
   <symbol id="Symbol11">
    <path d="m0,0l4,0l0,4l-4,0l0,-4z" fill="rgb(0,0,0)" id="svg_66" stroke-linecap="round" stroke-width="0"/>
   </symbol>
   <g id="svg_67" stroke="rgb(0,0,0)" stroke-width="0">
    <use id="svg_68" x="-1388.06" xlink:href="#Symbol11" y="147.17"/>
   </g>
   <symbol id="Symbol12">
    <path d="m0,0l4,0l0,4l-4,0l0,-4z" fill="rgb(0,0,0)" id="svg_69" stroke-linecap="round" stroke-width="0"/>
   </symbol>
   <g id="svg_70" stroke="rgb(0,0,0)" stroke-width="0">
    <use id="svg_71" transform="matrix(0.000321801, 0, 0, 3.03658, 1045.94, 0)" x="-12538483.69" xlink:href="#Symbol12" y="168.95"/>
   </g>
  </g>
  <path d="m2148.5,-365.83c-6.81,0 -7.68,0 -8.44,0l-1.04,0" fill="none" fill-opacity="0" id="svg_73" stroke="null" stroke-dasharray="null" stroke-linecap="null" stroke-linejoin="null" stroke-opacity="null"/>
 </g>

</svg>