<?xml version="1.0" encoding="UTF-8" standalone="no" ?>
<!DOCTYPE svg PUBLIC "-//W3C//DTD SVG 1.1//EN" "http://www.w3.org/Graphics/SVG/1.1/DTD/svg11.dtd">
<svg xmlns="http://www.w3.org/2000/svg" xmlns:xlink="http://www.w3.org/1999/xlink" version="1.1" width="250" height="350" viewBox="0 0 250 350" xml:space="preserve">
<desc>Created with Fabric.js 3.6.6</desc>
<defs>
</defs>
<g transform="matrix(1 0 0 1 2226 1139)"  >
<g style=""   >
		<g transform="matrix(1 0 0 1 0.5 0.5)" id="background"  >
<rect style="stroke: none; stroke-width: 1; stroke-dasharray: none; stroke-linecap: butt; stroke-dashoffset: 0; stroke-linejoin: miter; stroke-miterlimit: 4; fill: rgb(255,255,255); fill-opacity: 0; fill-rule: nonzero; opacity: 1;"  x="-2226" y="-1139" rx="0" ry="0" width="4452" height="2278" />
</g>
		<g transform="matrix(1 0 0 1 -786.62 29.29)"  >
<line style="stroke: rgb(0,0,0); stroke-width: 6; stroke-dasharray: none; stroke-linecap: butt; stroke-dashoffset: 0; stroke-linejoin: miter; stroke-miterlimit: 4; fill: rgb(0,0,0); fill-rule: nonzero; opacity: 1;"  x1="-16.664999999999964" y1="81.31999999999994" x2="16.664999999999964" y2="-81.31999999999994" />
</g>
		<g transform="matrix(1 0 0 1 -735.82 -31.07)"  >
<line style="stroke: rgb(0,0,0); stroke-width: 6; stroke-dasharray: none; stroke-linecap: butt; stroke-dashoffset: 0; stroke-linejoin: miter; stroke-miterlimit: 4; fill: rgb(0,0,0); fill-rule: nonzero; opacity: 1;"  x1="-33.539999999999964" y1="-22.24000000000001" x2="33.539999999999964" y2="22.24000000000001" />
</g>
		<g transform="matrix(1 0 0 1 -747.3 73.51)"  >
<line style="stroke: rgb(0,0,0); stroke-width: 6; stroke-dasharray: none; stroke-linecap: butt; stroke-dashoffset: 0; stroke-linejoin: miter; stroke-miterlimit: 4; fill: rgb(0,0,0); fill-rule: nonzero; opacity: 1;"  x1="53.629999999999995" y1="-38.20500000000004" x2="-53.629999999999995" y2="38.20500000000004" />
</g>
		<g transform="matrix(1 0 0 1 -732.59 74.22)"  >
<line style="stroke: rgb(0,0,0); stroke-width: 6; stroke-dasharray: none; stroke-linecap: butt; stroke-dashoffset: 0; stroke-linejoin: miter; stroke-miterlimit: 4; fill: rgb(0,0,0); fill-rule: nonzero; opacity: 1;"  x1="53.26999999999998" y1="37.49000000000001" x2="-53.26999999999998" y2="-37.49000000000001" />
</g>
		<g transform="matrix(1 0 0 1 -744.25 13.78)"  >
<line style="stroke: rgb(0,0,0); stroke-width: 6; stroke-dasharray: none; stroke-linecap: butt; stroke-dashoffset: 0; stroke-linejoin: miter; stroke-miterlimit: 4; fill: rgb(0,0,0); fill-rule: nonzero; opacity: 1;"  x1="41.97000000000003" y1="-21.165000000000077" x2="-41.97000000000003" y2="21.165000000000077" />
</g>
		<g transform="matrix(1 0 0 1 -735.1 14.13)"  >
<line style="stroke: rgb(0,0,0); stroke-width: 6; stroke-dasharray: none; stroke-linecap: butt; stroke-dashoffset: 0; stroke-linejoin: miter; stroke-miterlimit: 4; fill: rgb(0,0,0); fill-rule: nonzero; opacity: 1;"  x1="40" y1="20.090000000000032" x2="-40" y2="-20.090000000000032" />
</g>
		<g transform="matrix(1 0 0 1 -746.59 -29.1)"  >
<line style="stroke: rgb(0,0,0); stroke-width: 6; stroke-dasharray: none; stroke-linecap: butt; stroke-dashoffset: 0; stroke-linejoin: miter; stroke-miterlimit: 4; fill: rgb(0,0,0); fill-rule: nonzero; opacity: 1;"  x1="32.825000000000045" y1="-23.13499999999999" x2="-32.825000000000045" y2="23.13499999999999" />
</g>
		<g transform="matrix(1 0 0 1 -694.74 28.31)"  >
<line style="stroke: rgb(0,0,0); stroke-width: 6; stroke-dasharray: none; stroke-linecap: butt; stroke-dashoffset: 0; stroke-linejoin: miter; stroke-miterlimit: 4; fill: rgb(0,0,0); fill-rule: nonzero; opacity: 1;"  x1="16.8599999999999" y1="81.61500000000001" x2="-16.8599999999999" y2="-81.61500000000001" />
</g>
		<g transform="matrix(1 0 0 1 -740.13 -53.49)"  >
<line style="stroke: rgb(0,0,0); stroke-width: 6; stroke-dasharray: none; stroke-linecap: butt; stroke-dashoffset: 0; stroke-linejoin: miter; stroke-miterlimit: 4; fill: rgb(0,0,0); fill-rule: nonzero; opacity: 1;"  x1="-88.07500000000005" y1="-0.18000000000006366" x2="88.07500000000005" y2="0.18000000000006366" />
</g>
		<g transform="matrix(1 0 0 1 -710.88 -111.78)"  >
<line style="stroke: rgb(0,0,0); stroke-width: 6; stroke-dasharray: none; stroke-linecap: butt; stroke-dashoffset: 0; stroke-linejoin: miter; stroke-miterlimit: 4; fill: rgb(0,0,0); fill-rule: nonzero; opacity: 1;"  x1="-58.47499999999991" y1="-57.754999999999995" x2="58.47499999999991" y2="57.754999999999995" />
</g>
		<g transform="matrix(1 0 0 1 -769.37 -111.24)"  >
<line style="stroke: rgb(0,0,0); stroke-width: 6; stroke-dasharray: none; stroke-linecap: butt; stroke-dashoffset: 0; stroke-linejoin: miter; stroke-miterlimit: 4; fill: rgb(0,0,0); fill-rule: nonzero; opacity: 1;"  x1="58.11500000000001" y1="-57.935" x2="-58.11500000000001" y2="57.935" />
</g>
		<g transform="matrix(1 0 0 1 -740.66 -112.86)"  >
<line style="stroke: rgb(0,0,0); stroke-width: 6; stroke-dasharray: none; stroke-linecap: butt; stroke-dashoffset: 0; stroke-linejoin: miter; stroke-miterlimit: 4; fill: rgb(0,0,0); fill-rule: nonzero; opacity: 1;"  x1="86.81500000000005" y1="-0.7199999999999136" x2="-86.81500000000005" y2="0.7199999999999136" />
</g>
		<g transform="matrix(1 0 0 1 -681.83 -141.74)"  >
<line style="stroke: rgb(0,0,0); stroke-width: 6; stroke-dasharray: none; stroke-linecap: butt; stroke-dashoffset: 0; stroke-linejoin: miter; stroke-miterlimit: 4; fill: rgb(0,0,0); fill-rule: nonzero; opacity: 1;"  x1="-27.620000000000005" y1="-27.799999999999955" x2="27.620000000000005" y2="27.799999999999955" />
</g>
		<g transform="matrix(1 0 0 1 -711.25 -112.14)"  >
<line style="stroke: rgb(0,0,0); stroke-width: 6; stroke-dasharray: none; stroke-linecap: butt; stroke-dashoffset: 0; stroke-linejoin: miter; stroke-miterlimit: 4; fill: rgb(0,0,0); fill-rule: nonzero; opacity: 1;"  x1="0.7150000000000318" y1="58.835000000000036" x2="-0.7150000000000318" y2="-58.835000000000036" />
</g>
		<g transform="matrix(1 0 0 1 -739.22 -170.08)"  >
<line style="stroke: rgb(0,0,0); stroke-width: 6; stroke-dasharray: none; stroke-linecap: butt; stroke-dashoffset: 0; stroke-linejoin: miter; stroke-miterlimit: 4; fill: rgb(0,0,0); fill-rule: nonzero; opacity: 1;"  x1="-29.415000000000077" y1="0.18000000000000682" x2="29.415000000000077" y2="-0.18000000000000682" />
</g>
		<g transform="matrix(1 0 0 1 -769.9 -111.79)"  >
<line style="stroke: rgb(0,0,0); stroke-width: 6; stroke-dasharray: none; stroke-linecap: butt; stroke-dashoffset: 0; stroke-linejoin: miter; stroke-miterlimit: 4; fill: rgb(0,0,0); fill-rule: nonzero; opacity: 1;"  x1="-0.17999999999994998" y1="58.11499999999995" x2="0.17999999999994998" y2="-58.11499999999995" />
</g>
		<g transform="matrix(1 0 0 1 -740.13 -82.73)"  >
<line style="stroke: rgb(0,0,0); stroke-width: 6; stroke-dasharray: none; stroke-linecap: butt; stroke-dashoffset: 0; stroke-linejoin: miter; stroke-miterlimit: 4; fill: rgb(0,0,0); fill-rule: nonzero; opacity: 1;"  x1="27.085000000000036" y1="26.54499999999996" x2="-27.085000000000036" y2="-26.54499999999996" />
</g>
		<g transform="matrix(1 0 0 1 -740.66 -82.73)"  >
<line style="stroke: rgb(0,0,0); stroke-width: 6; stroke-dasharray: none; stroke-linecap: butt; stroke-dashoffset: 0; stroke-linejoin: miter; stroke-miterlimit: 4; fill: rgb(0,0,0); fill-rule: nonzero; opacity: 1;"  x1="26.904999999999973" y1="-26.54499999999996" x2="-26.904999999999973" y2="26.54499999999996" />
</g>
		<g transform="matrix(1 0 0 1 -810.26 -101.56)"  >
<line style="stroke: rgb(0,0,0); stroke-width: 6; stroke-dasharray: none; stroke-linecap: butt; stroke-dashoffset: 0; stroke-linejoin: miter; stroke-miterlimit: 4; fill: rgb(0,0,0); fill-rule: nonzero; opacity: 1;"  x1="0" y1="-7.710000000000036" x2="0" y2="7.710000000000036" />
</g>
		<g transform="matrix(1 0 0 1 -652.77 -103.71)"  >
<line style="stroke: rgb(0,0,0); stroke-width: 6; stroke-dasharray: none; stroke-linecap: butt; stroke-dashoffset: 0; stroke-linejoin: miter; stroke-miterlimit: 4; fill: rgb(0,0,0); fill-rule: nonzero; opacity: 1;"  x1="0" y1="-9.144999999999982" x2="0" y2="9.144999999999982" />
</g>
		<g transform="matrix(1 0 0 1 -662.64 -95.28)"  >
<line style="stroke: rgb(0,0,0); stroke-width: 6; stroke-dasharray: none; stroke-linecap: butt; stroke-dashoffset: 0; stroke-linejoin: miter; stroke-miterlimit: 4; fill: rgb(0,0,0); fill-rule: nonzero; opacity: 1;"  x1="-8.790000000000077" y1="0" x2="8.790000000000077" y2="0" />
</g>
		<g transform="matrix(1 0 0 1 -671.25 -103.89)"  >
<line style="stroke: rgb(0,0,0); stroke-width: 6; stroke-dasharray: none; stroke-linecap: butt; stroke-dashoffset: 0; stroke-linejoin: miter; stroke-miterlimit: 4; fill: rgb(0,0,0); fill-rule: nonzero; opacity: 1;"  x1="-0.18000000000006366" y1="-8.969999999999914" x2="0.18000000000006366" y2="8.969999999999914" />
</g>
		<g transform="matrix(1 0 0 1 -652.23 -44.34)"  >
<line style="stroke: rgb(0,0,0); stroke-width: 6; stroke-dasharray: none; stroke-linecap: butt; stroke-dashoffset: 0; stroke-linejoin: miter; stroke-miterlimit: 4; fill: rgb(0,0,0); fill-rule: nonzero; opacity: 1;"  x1="-0.18000000000006366" y1="-7.889999999999986" x2="0.18000000000006366" y2="7.889999999999986" />
</g>
		<g transform="matrix(1 0 0 1 -662.1 -36.63)"  >
<line style="stroke: rgb(0,0,0); stroke-width: 6; stroke-dasharray: none; stroke-linecap: butt; stroke-dashoffset: 0; stroke-linejoin: miter; stroke-miterlimit: 4; fill: rgb(0,0,0); fill-rule: nonzero; opacity: 1;"  x1="-8.969999999999914" y1="0.17999999999994998" x2="8.969999999999914" y2="-0.17999999999994998" />
</g>
		<g transform="matrix(1 0 0 1 -810.8 -44.34)"  >
<line style="stroke: rgb(0,0,0); stroke-width: 6; stroke-dasharray: none; stroke-linecap: butt; stroke-dashoffset: 0; stroke-linejoin: miter; stroke-miterlimit: 4; fill: rgb(0,0,0); fill-rule: nonzero; opacity: 1;"  x1="0.18000000000006366" y1="-8.610000000000014" x2="-0.18000000000006366" y2="8.610000000000014" />
</g>
		<g transform="matrix(1 0 0 1 -820.12 -37.53)"  >
<line style="stroke: rgb(0,0,0); stroke-width: 6; stroke-dasharray: none; stroke-linecap: butt; stroke-dashoffset: 0; stroke-linejoin: miter; stroke-miterlimit: 4; fill: rgb(0,0,0); fill-rule: nonzero; opacity: 1;"  x1="-8.42999999999995" y1="0" x2="8.42999999999995" y2="0" />
</g>
		<g transform="matrix(1 0 0 1 -829.27 -46.14)"  >
<line style="stroke: rgb(0,0,0); stroke-width: 6; stroke-dasharray: none; stroke-linecap: butt; stroke-dashoffset: 0; stroke-linejoin: miter; stroke-miterlimit: 4; fill: rgb(0,0,0); fill-rule: nonzero; opacity: 1;"  x1="-0.36000000000001364" y1="-8.610000000000014" x2="0.36000000000001364" y2="8.610000000000014" />
</g>
		<g transform="matrix(1 0 0 1 -829.63 -102.64)"  >
<line style="stroke: rgb(0,0,0); stroke-width: 6; stroke-dasharray: none; stroke-linecap: butt; stroke-dashoffset: 0; stroke-linejoin: miter; stroke-miterlimit: 4; fill: rgb(0,0,0); fill-rule: nonzero; opacity: 1;"  x1="-0.36000000000001364" y1="-9.149999999999977" x2="0.36000000000001364" y2="9.149999999999977" />
</g>
		<g transform="matrix(1 0 0 1 -819.23 -96.36)"  >
<line style="stroke: rgb(0,0,0); stroke-width: 6; stroke-dasharray: none; stroke-linecap: butt; stroke-dashoffset: 0; stroke-linejoin: miter; stroke-miterlimit: 4; fill: rgb(0,0,0); fill-rule: nonzero; opacity: 1;"  x1="8.970000000000027" y1="0" x2="-8.970000000000027" y2="0" />
</g>
		<g transform="matrix(1 0 0 1 -670.17 -44.53)"  >
<line style="stroke: rgb(0,0,0); stroke-width: 6; stroke-dasharray: none; stroke-linecap: butt; stroke-dashoffset: 0; stroke-linejoin: miter; stroke-miterlimit: 4; fill: rgb(0,0,0); fill-rule: nonzero; opacity: 1;"  x1="-0.17999999999994998" y1="-7.355000000000018" x2="0.17999999999994998" y2="7.355000000000018" />
</g>
		<g transform="matrix(1 0 0 1 -799.85 -140.48)"  >
<line style="stroke: rgb(0,0,0); stroke-width: 6; stroke-dasharray: none; stroke-linecap: butt; stroke-dashoffset: 0; stroke-linejoin: miter; stroke-miterlimit: 4; fill: rgb(0,0,0); fill-rule: nonzero; opacity: 1;"  x1="30.495000000000005" y1="-30.135000000000048" x2="-30.495000000000005" y2="30.135000000000048" />
</g>
		<g transform="matrix(1 0 0 1 -768.7 -169.9)"  >
<path style="stroke: rgb(0,0,0); stroke-width: 0; stroke-dasharray: none; stroke-linecap: round; stroke-dashoffset: 0; stroke-linejoin: miter; stroke-miterlimit: 4; fill: rgb(0,0,0); fill-rule: nonzero; opacity: 1;"  transform=" translate(-3, -3)" d="M 0 0 L 6 0 L 6 6 L 0 6 z" stroke-linecap="round" />
</g>
		<g transform="matrix(1 0 0 1 -710.8 -169.9)"  >
<path style="stroke: rgb(0,0,0); stroke-width: 0; stroke-dasharray: none; stroke-linecap: round; stroke-dashoffset: 0; stroke-linejoin: miter; stroke-miterlimit: 4; fill: rgb(0,0,0); fill-rule: nonzero; opacity: 1;"  transform=" translate(-3, -3)" d="M 0 0 L 6 0 L 6 6 L 0 6 z" stroke-linecap="round" />
</g>
		<g transform="matrix(1 0 0 1 -652.2 -111.5)"  >
<path style="stroke: rgb(0,0,0); stroke-width: 0; stroke-dasharray: none; stroke-linecap: round; stroke-dashoffset: 0; stroke-linejoin: miter; stroke-miterlimit: 4; fill: rgb(0,0,0); fill-rule: nonzero; opacity: 1;"  transform=" translate(-2, -2)" d="M 0 0 L 4 0 L 4 4 L 0 4 z" stroke-linecap="round" />
</g>
		<g transform="matrix(1 0 0 1 -652.9 -113.1)"  >
<path style="stroke: rgb(0,0,0); stroke-width: 0; stroke-dasharray: none; stroke-linecap: round; stroke-dashoffset: 0; stroke-linejoin: miter; stroke-miterlimit: 4; fill: rgb(0,0,0); fill-rule: nonzero; opacity: 1;"  transform=" translate(-2, -2)" d="M 0 0 L 4 0 L 4 4 L 0 4 z" stroke-linecap="round" />
</g>
		<g transform="matrix(1 0 0 1 -653.3 -113.3)"  >
<path style="stroke: rgb(0,0,0); stroke-width: 0; stroke-dasharray: none; stroke-linecap: round; stroke-dashoffset: 0; stroke-linejoin: miter; stroke-miterlimit: 4; fill: rgb(0,0,0); fill-rule: nonzero; opacity: 1;"  transform=" translate(-2, -2)" d="M 0 0 L 4 0 L 4 4 L 0 4 z" stroke-linecap="round" />
</g>
		<g transform="matrix(1 0 0 1 -653.8 -113.8)"  >
<path style="stroke: rgb(0,0,0); stroke-width: 0; stroke-dasharray: none; stroke-linecap: round; stroke-dashoffset: 0; stroke-linejoin: miter; stroke-miterlimit: 4; fill: rgb(0,0,0); fill-rule: nonzero; opacity: 1;"  transform=" translate(-2, -2)" d="M 0 0 L 4 0 L 4 4 L 0 4 z" stroke-linecap="round" />
</g>
		<g transform="matrix(1 0 0 1 -652.4 -54.3)"  >
<path style="stroke: rgb(0,0,0); stroke-width: 0; stroke-dasharray: none; stroke-linecap: round; stroke-dashoffset: 0; stroke-linejoin: miter; stroke-miterlimit: 4; fill: rgb(0,0,0); fill-rule: nonzero; opacity: 1;"  transform=" translate(-2, -2)" d="M 0 0 L 4 0 L 4 4 L 0 4 z" stroke-linecap="round" />
</g>
		<g transform="matrix(1 0 0 1 -651.7 -53.4)"  >
<path style="stroke: rgb(0,0,0); stroke-width: 0; stroke-dasharray: none; stroke-linecap: round; stroke-dashoffset: 0; stroke-linejoin: miter; stroke-miterlimit: 4; fill: rgb(0,0,0); fill-rule: nonzero; opacity: 1;"  transform=" translate(-2, -2)" d="M 0 0 L 4 0 L 4 4 L 0 4 z" stroke-linecap="round" />
</g>
		<g transform="matrix(1 0 0 1 -670.7 -35.5)"  >
<path style="stroke: rgb(0,0,0); stroke-width: 0; stroke-dasharray: none; stroke-linecap: round; stroke-dashoffset: 0; stroke-linejoin: miter; stroke-miterlimit: 4; fill: rgb(0,0,0); fill-rule: nonzero; opacity: 1;"  transform=" translate(-2, -2)" d="M 0 0 L 4 0 L 4 4 L 0 4 z" stroke-linecap="round" />
</g>
		<g transform="matrix(1 0 0 1 -670.9 -36)"  >
<path style="stroke: rgb(0,0,0); stroke-width: 0; stroke-dasharray: none; stroke-linecap: round; stroke-dashoffset: 0; stroke-linejoin: miter; stroke-miterlimit: 4; fill: rgb(0,0,0); fill-rule: nonzero; opacity: 1;"  transform=" translate(-2, -2)" d="M 0 0 L 4 0 L 4 4 L 0 4 z" stroke-linecap="round" />
</g>
		<g transform="matrix(1 0 0 1 -651.2 -35.7)"  >
<path style="stroke: rgb(0,0,0); stroke-width: 0; stroke-dasharray: none; stroke-linecap: round; stroke-dashoffset: 0; stroke-linejoin: miter; stroke-miterlimit: 4; fill: rgb(0,0,0); fill-rule: nonzero; opacity: 1;"  transform=" translate(-2, -2)" d="M 0 0 L 4 0 L 4 4 L 0 4 z" stroke-linecap="round" />
</g>
		<g transform="matrix(1 0 0 1 -829.8 -36.4)"  >
<path style="stroke: rgb(0,0,0); stroke-width: 0; stroke-dasharray: none; stroke-linecap: round; stroke-dashoffset: 0; stroke-linejoin: miter; stroke-miterlimit: 4; fill: rgb(0,0,0); fill-rule: nonzero; opacity: 1;"  transform=" translate(-2, -2)" d="M 0 0 L 4 0 L 4 4 L 0 4 z" stroke-linecap="round" />
</g>
		<g transform="matrix(1 0 0 1 -810.1 -36.7)"  >
<path style="stroke: rgb(0,0,0); stroke-width: 0; stroke-dasharray: none; stroke-linecap: round; stroke-dashoffset: 0; stroke-linejoin: miter; stroke-miterlimit: 4; fill: rgb(0,0,0); fill-rule: nonzero; opacity: 1;"  transform=" translate(-2, -2)" d="M 0 0 L 4 0 L 4 4 L 0 4 z" stroke-linecap="round" />
</g>
</g>
</g>
<g transform="matrix(1 0 0 1 868 200)"  >
<g style=""   >
		<g transform="matrix(1 0 0 1 0.5 0.5)" id="background"  >
<rect style="stroke: none; stroke-width: 1; stroke-dasharray: none; stroke-linecap: butt; stroke-dashoffset: 0; stroke-linejoin: miter; stroke-miterlimit: 4; fill: rgb(255,255,255); fill-opacity: 0; fill-rule: nonzero; opacity: 1;"  x="-2226" y="-1139" rx="0" ry="0" width="4452" height="2278" />
</g>
		<g transform="matrix(1 0 0 1 -786.62 29.29)"  >
<line style="stroke: rgb(0,0,0); stroke-width: 6; stroke-dasharray: none; stroke-linecap: butt; stroke-dashoffset: 0; stroke-linejoin: miter; stroke-miterlimit: 4; fill: rgb(0,0,0); fill-rule: nonzero; opacity: 1;"  x1="-16.664999999999964" y1="81.31999999999994" x2="16.664999999999964" y2="-81.31999999999994" />
</g>
		<g transform="matrix(1 0 0 1 -735.82 -31.07)"  >
<line style="stroke: rgb(0,0,0); stroke-width: 6; stroke-dasharray: none; stroke-linecap: butt; stroke-dashoffset: 0; stroke-linejoin: miter; stroke-miterlimit: 4; fill: rgb(0,0,0); fill-rule: nonzero; opacity: 1;"  x1="-33.539999999999964" y1="-22.24000000000001" x2="33.539999999999964" y2="22.24000000000001" />
</g>
		<g transform="matrix(1 0 0 1 -747.3 73.51)"  >
<line style="stroke: rgb(0,0,0); stroke-width: 6; stroke-dasharray: none; stroke-linecap: butt; stroke-dashoffset: 0; stroke-linejoin: miter; stroke-miterlimit: 4; fill: rgb(0,0,0); fill-rule: nonzero; opacity: 1;"  x1="53.629999999999995" y1="-38.20500000000004" x2="-53.629999999999995" y2="38.20500000000004" />
</g>
		<g transform="matrix(1 0 0 1 -732.59 74.22)"  >
<line style="stroke: rgb(0,0,0); stroke-width: 6; stroke-dasharray: none; stroke-linecap: butt; stroke-dashoffset: 0; stroke-linejoin: miter; stroke-miterlimit: 4; fill: rgb(0,0,0); fill-rule: nonzero; opacity: 1;"  x1="53.26999999999998" y1="37.49000000000001" x2="-53.26999999999998" y2="-37.49000000000001" />
</g>
		<g transform="matrix(1 0 0 1 -744.25 13.78)"  >
<line style="stroke: rgb(0,0,0); stroke-width: 6; stroke-dasharray: none; stroke-linecap: butt; stroke-dashoffset: 0; stroke-linejoin: miter; stroke-miterlimit: 4; fill: rgb(0,0,0); fill-rule: nonzero; opacity: 1;"  x1="41.97000000000003" y1="-21.165000000000077" x2="-41.97000000000003" y2="21.165000000000077" />
</g>
		<g transform="matrix(1 0 0 1 -735.1 14.13)"  >
<line style="stroke: rgb(0,0,0); stroke-width: 6; stroke-dasharray: none; stroke-linecap: butt; stroke-dashoffset: 0; stroke-linejoin: miter; stroke-miterlimit: 4; fill: rgb(0,0,0); fill-rule: nonzero; opacity: 1;"  x1="40" y1="20.090000000000032" x2="-40" y2="-20.090000000000032" />
</g>
		<g transform="matrix(1 0 0 1 -746.59 -29.1)"  >
<line style="stroke: rgb(0,0,0); stroke-width: 6; stroke-dasharray: none; stroke-linecap: butt; stroke-dashoffset: 0; stroke-linejoin: miter; stroke-miterlimit: 4; fill: rgb(0,0,0); fill-rule: nonzero; opacity: 1;"  x1="32.825000000000045" y1="-23.13499999999999" x2="-32.825000000000045" y2="23.13499999999999" />
</g>
		<g transform="matrix(1 0 0 1 -694.74 28.31)"  >
<line style="stroke: rgb(0,0,0); stroke-width: 6; stroke-dasharray: none; stroke-linecap: butt; stroke-dashoffset: 0; stroke-linejoin: miter; stroke-miterlimit: 4; fill: rgb(0,0,0); fill-rule: nonzero; opacity: 1;"  x1="16.8599999999999" y1="81.61500000000001" x2="-16.8599999999999" y2="-81.61500000000001" />
</g>
		<g transform="matrix(1 0 0 1 -740.13 -53.49)"  >
<line style="stroke: rgb(0,0,0); stroke-width: 6; stroke-dasharray: none; stroke-linecap: butt; stroke-dashoffset: 0; stroke-linejoin: miter; stroke-miterlimit: 4; fill: rgb(0,0,0); fill-rule: nonzero; opacity: 1;"  x1="-88.07500000000005" y1="-0.18000000000006366" x2="88.07500000000005" y2="0.18000000000006366" />
</g>
		<g transform="matrix(1 0 0 1 -710.88 -111.78)"  >
<line style="stroke: rgb(0,0,0); stroke-width: 6; stroke-dasharray: none; stroke-linecap: butt; stroke-dashoffset: 0; stroke-linejoin: miter; stroke-miterlimit: 4; fill: rgb(0,0,0); fill-rule: nonzero; opacity: 1;"  x1="-58.47499999999991" y1="-57.754999999999995" x2="58.47499999999991" y2="57.754999999999995" />
</g>
		<g transform="matrix(1 0 0 1 -769.37 -111.24)"  >
<line style="stroke: rgb(0,0,0); stroke-width: 6; stroke-dasharray: none; stroke-linecap: butt; stroke-dashoffset: 0; stroke-linejoin: miter; stroke-miterlimit: 4; fill: rgb(0,0,0); fill-rule: nonzero; opacity: 1;"  x1="58.11500000000001" y1="-57.935" x2="-58.11500000000001" y2="57.935" />
</g>
		<g transform="matrix(1 0 0 1 -740.66 -112.86)"  >
<line style="stroke: rgb(0,0,0); stroke-width: 6; stroke-dasharray: none; stroke-linecap: butt; stroke-dashoffset: 0; stroke-linejoin: miter; stroke-miterlimit: 4; fill: rgb(0,0,0); fill-rule: nonzero; opacity: 1;"  x1="86.81500000000005" y1="-0.7199999999999136" x2="-86.81500000000005" y2="0.7199999999999136" />
</g>
		<g transform="matrix(1 0 0 1 -681.83 -141.74)"  >
<line style="stroke: rgb(0,0,0); stroke-width: 6; stroke-dasharray: none; stroke-linecap: butt; stroke-dashoffset: 0; stroke-linejoin: miter; stroke-miterlimit: 4; fill: rgb(0,0,0); fill-rule: nonzero; opacity: 1;"  x1="-27.620000000000005" y1="-27.799999999999955" x2="27.620000000000005" y2="27.799999999999955" />
</g>
		<g transform="matrix(1 0 0 1 -711.25 -112.14)"  >
<line style="stroke: rgb(0,0,0); stroke-width: 6; stroke-dasharray: none; stroke-linecap: butt; stroke-dashoffset: 0; stroke-linejoin: miter; stroke-miterlimit: 4; fill: rgb(0,0,0); fill-rule: nonzero; opacity: 1;"  x1="0.7150000000000318" y1="58.835000000000036" x2="-0.7150000000000318" y2="-58.835000000000036" />
</g>
		<g transform="matrix(1 0 0 1 -739.22 -170.08)"  >
<line style="stroke: rgb(0,0,0); stroke-width: 6; stroke-dasharray: none; stroke-linecap: butt; stroke-dashoffset: 0; stroke-linejoin: miter; stroke-miterlimit: 4; fill: rgb(0,0,0); fill-rule: nonzero; opacity: 1;"  x1="-29.415000000000077" y1="0.18000000000000682" x2="29.415000000000077" y2="-0.18000000000000682" />
</g>
		<g transform="matrix(1 0 0 1 -769.9 -111.79)"  >
<line style="stroke: rgb(0,0,0); stroke-width: 6; stroke-dasharray: none; stroke-linecap: butt; stroke-dashoffset: 0; stroke-linejoin: miter; stroke-miterlimit: 4; fill: rgb(0,0,0); fill-rule: nonzero; opacity: 1;"  x1="-0.17999999999994998" y1="58.11499999999995" x2="0.17999999999994998" y2="-58.11499999999995" />
</g>
		<g transform="matrix(1 0 0 1 -740.13 -82.73)"  >
<line style="stroke: rgb(0,0,0); stroke-width: 6; stroke-dasharray: none; stroke-linecap: butt; stroke-dashoffset: 0; stroke-linejoin: miter; stroke-miterlimit: 4; fill: rgb(0,0,0); fill-rule: nonzero; opacity: 1;"  x1="27.085000000000036" y1="26.54499999999996" x2="-27.085000000000036" y2="-26.54499999999996" />
</g>
		<g transform="matrix(1 0 0 1 -740.66 -82.73)"  >
<line style="stroke: rgb(0,0,0); stroke-width: 6; stroke-dasharray: none; stroke-linecap: butt; stroke-dashoffset: 0; stroke-linejoin: miter; stroke-miterlimit: 4; fill: rgb(0,0,0); fill-rule: nonzero; opacity: 1;"  x1="26.904999999999973" y1="-26.54499999999996" x2="-26.904999999999973" y2="26.54499999999996" />
</g>
		<g transform="matrix(1 0 0 1 -810.26 -101.56)"  >
<line style="stroke: rgb(0,0,0); stroke-width: 6; stroke-dasharray: none; stroke-linecap: butt; stroke-dashoffset: 0; stroke-linejoin: miter; stroke-miterlimit: 4; fill: rgb(0,0,0); fill-rule: nonzero; opacity: 1;"  x1="0" y1="-7.710000000000036" x2="0" y2="7.710000000000036" />
</g>
		<g transform="matrix(1 0 0 1 -652.77 -103.71)"  >
<line style="stroke: rgb(0,0,0); stroke-width: 6; stroke-dasharray: none; stroke-linecap: butt; stroke-dashoffset: 0; stroke-linejoin: miter; stroke-miterlimit: 4; fill: rgb(0,0,0); fill-rule: nonzero; opacity: 1;"  x1="0" y1="-9.144999999999982" x2="0" y2="9.144999999999982" />
</g>
		<g transform="matrix(1 0 0 1 -662.64 -95.28)"  >
<line style="stroke: rgb(0,0,0); stroke-width: 6; stroke-dasharray: none; stroke-linecap: butt; stroke-dashoffset: 0; stroke-linejoin: miter; stroke-miterlimit: 4; fill: rgb(0,0,0); fill-rule: nonzero; opacity: 1;"  x1="-8.790000000000077" y1="0" x2="8.790000000000077" y2="0" />
</g>
		<g transform="matrix(1 0 0 1 -671.25 -103.89)"  >
<line style="stroke: rgb(0,0,0); stroke-width: 6; stroke-dasharray: none; stroke-linecap: butt; stroke-dashoffset: 0; stroke-linejoin: miter; stroke-miterlimit: 4; fill: rgb(0,0,0); fill-rule: nonzero; opacity: 1;"  x1="-0.18000000000006366" y1="-8.969999999999914" x2="0.18000000000006366" y2="8.969999999999914" />
</g>
		<g transform="matrix(1 0 0 1 -652.23 -44.34)"  >
<line style="stroke: rgb(0,0,0); stroke-width: 6; stroke-dasharray: none; stroke-linecap: butt; stroke-dashoffset: 0; stroke-linejoin: miter; stroke-miterlimit: 4; fill: rgb(0,0,0); fill-rule: nonzero; opacity: 1;"  x1="-0.18000000000006366" y1="-7.889999999999986" x2="0.18000000000006366" y2="7.889999999999986" />
</g>
		<g transform="matrix(1 0 0 1 -662.1 -36.63)"  >
<line style="stroke: rgb(0,0,0); stroke-width: 6; stroke-dasharray: none; stroke-linecap: butt; stroke-dashoffset: 0; stroke-linejoin: miter; stroke-miterlimit: 4; fill: rgb(0,0,0); fill-rule: nonzero; opacity: 1;"  x1="-8.969999999999914" y1="0.17999999999994998" x2="8.969999999999914" y2="-0.17999999999994998" />
</g>
		<g transform="matrix(1 0 0 1 -810.8 -44.34)"  >
<line style="stroke: rgb(0,0,0); stroke-width: 6; stroke-dasharray: none; stroke-linecap: butt; stroke-dashoffset: 0; stroke-linejoin: miter; stroke-miterlimit: 4; fill: rgb(0,0,0); fill-rule: nonzero; opacity: 1;"  x1="0.18000000000006366" y1="-8.610000000000014" x2="-0.18000000000006366" y2="8.610000000000014" />
</g>
		<g transform="matrix(1 0 0 1 -820.12 -37.53)"  >
<line style="stroke: rgb(0,0,0); stroke-width: 6; stroke-dasharray: none; stroke-linecap: butt; stroke-dashoffset: 0; stroke-linejoin: miter; stroke-miterlimit: 4; fill: rgb(0,0,0); fill-rule: nonzero; opacity: 1;"  x1="-8.42999999999995" y1="0" x2="8.42999999999995" y2="0" />
</g>
		<g transform="matrix(1 0 0 1 -829.27 -46.14)"  >
<line style="stroke: rgb(0,0,0); stroke-width: 6; stroke-dasharray: none; stroke-linecap: butt; stroke-dashoffset: 0; stroke-linejoin: miter; stroke-miterlimit: 4; fill: rgb(0,0,0); fill-rule: nonzero; opacity: 1;"  x1="-0.36000000000001364" y1="-8.610000000000014" x2="0.36000000000001364" y2="8.610000000000014" />
</g>
		<g transform="matrix(1 0 0 1 -829.63 -102.64)"  >
<line style="stroke: rgb(0,0,0); stroke-width: 6; stroke-dasharray: none; stroke-linecap: butt; stroke-dashoffset: 0; stroke-linejoin: miter; stroke-miterlimit: 4; fill: rgb(0,0,0); fill-rule: nonzero; opacity: 1;"  x1="-0.36000000000001364" y1="-9.149999999999977" x2="0.36000000000001364" y2="9.149999999999977" />
</g>
		<g transform="matrix(1 0 0 1 -819.23 -96.36)"  >
<line style="stroke: rgb(0,0,0); stroke-width: 6; stroke-dasharray: none; stroke-linecap: butt; stroke-dashoffset: 0; stroke-linejoin: miter; stroke-miterlimit: 4; fill: rgb(0,0,0); fill-rule: nonzero; opacity: 1;"  x1="8.970000000000027" y1="0" x2="-8.970000000000027" y2="0" />
</g>
		<g transform="matrix(1 0 0 1 -670.17 -44.53)"  >
<line style="stroke: rgb(0,0,0); stroke-width: 6; stroke-dasharray: none; stroke-linecap: butt; stroke-dashoffset: 0; stroke-linejoin: miter; stroke-miterlimit: 4; fill: rgb(0,0,0); fill-rule: nonzero; opacity: 1;"  x1="-0.17999999999994998" y1="-7.355000000000018" x2="0.17999999999994998" y2="7.355000000000018" />
</g>
		<g transform="matrix(1 0 0 1 -799.85 -140.48)"  >
<line style="stroke: rgb(0,0,0); stroke-width: 6; stroke-dasharray: none; stroke-linecap: butt; stroke-dashoffset: 0; stroke-linejoin: miter; stroke-miterlimit: 4; fill: rgb(0,0,0); fill-rule: nonzero; opacity: 1;"  x1="30.495000000000005" y1="-30.135000000000048" x2="-30.495000000000005" y2="30.135000000000048" />
</g>
		<g transform="matrix(1 0 0 1 -768.7 -169.9)"  >
<path style="stroke: rgb(0,0,0); stroke-width: 0; stroke-dasharray: none; stroke-linecap: round; stroke-dashoffset: 0; stroke-linejoin: miter; stroke-miterlimit: 4; fill: rgb(0,0,0); fill-rule: nonzero; opacity: 1;"  transform=" translate(-3, -3)" d="M 0 0 L 6 0 L 6 6 L 0 6 z" stroke-linecap="round" />
</g>
		<g transform="matrix(1 0 0 1 -710.8 -169.9)"  >
<path style="stroke: rgb(0,0,0); stroke-width: 0; stroke-dasharray: none; stroke-linecap: round; stroke-dashoffset: 0; stroke-linejoin: miter; stroke-miterlimit: 4; fill: rgb(0,0,0); fill-rule: nonzero; opacity: 1;"  transform=" translate(-3, -3)" d="M 0 0 L 6 0 L 6 6 L 0 6 z" stroke-linecap="round" />
</g>
		<g transform="matrix(1 0 0 1 -652.2 -111.5)"  >
<path style="stroke: rgb(0,0,0); stroke-width: 0; stroke-dasharray: none; stroke-linecap: round; stroke-dashoffset: 0; stroke-linejoin: miter; stroke-miterlimit: 4; fill: rgb(0,0,0); fill-rule: nonzero; opacity: 1;"  transform=" translate(-2, -2)" d="M 0 0 L 4 0 L 4 4 L 0 4 z" stroke-linecap="round" />
</g>
		<g transform="matrix(1 0 0 1 -652.9 -113.1)"  >
<path style="stroke: rgb(0,0,0); stroke-width: 0; stroke-dasharray: none; stroke-linecap: round; stroke-dashoffset: 0; stroke-linejoin: miter; stroke-miterlimit: 4; fill: rgb(0,0,0); fill-rule: nonzero; opacity: 1;"  transform=" translate(-2, -2)" d="M 0 0 L 4 0 L 4 4 L 0 4 z" stroke-linecap="round" />
</g>
		<g transform="matrix(1 0 0 1 -653.3 -113.3)"  >
<path style="stroke: rgb(0,0,0); stroke-width: 0; stroke-dasharray: none; stroke-linecap: round; stroke-dashoffset: 0; stroke-linejoin: miter; stroke-miterlimit: 4; fill: rgb(0,0,0); fill-rule: nonzero; opacity: 1;"  transform=" translate(-2, -2)" d="M 0 0 L 4 0 L 4 4 L 0 4 z" stroke-linecap="round" />
</g>
		<g transform="matrix(1 0 0 1 -653.8 -113.8)"  >
<path style="stroke: rgb(0,0,0); stroke-width: 0; stroke-dasharray: none; stroke-linecap: round; stroke-dashoffset: 0; stroke-linejoin: miter; stroke-miterlimit: 4; fill: rgb(0,0,0); fill-rule: nonzero; opacity: 1;"  transform=" translate(-2, -2)" d="M 0 0 L 4 0 L 4 4 L 0 4 z" stroke-linecap="round" />
</g>
		<g transform="matrix(1 0 0 1 -652.4 -54.3)"  >
<path style="stroke: rgb(0,0,0); stroke-width: 0; stroke-dasharray: none; stroke-linecap: round; stroke-dashoffset: 0; stroke-linejoin: miter; stroke-miterlimit: 4; fill: rgb(0,0,0); fill-rule: nonzero; opacity: 1;"  transform=" translate(-2, -2)" d="M 0 0 L 4 0 L 4 4 L 0 4 z" stroke-linecap="round" />
</g>
		<g transform="matrix(1 0 0 1 -651.7 -53.4)"  >
<path style="stroke: rgb(0,0,0); stroke-width: 0; stroke-dasharray: none; stroke-linecap: round; stroke-dashoffset: 0; stroke-linejoin: miter; stroke-miterlimit: 4; fill: rgb(0,0,0); fill-rule: nonzero; opacity: 1;"  transform=" translate(-2, -2)" d="M 0 0 L 4 0 L 4 4 L 0 4 z" stroke-linecap="round" />
</g>
		<g transform="matrix(1 0 0 1 -670.7 -35.5)"  >
<path style="stroke: rgb(0,0,0); stroke-width: 0; stroke-dasharray: none; stroke-linecap: round; stroke-dashoffset: 0; stroke-linejoin: miter; stroke-miterlimit: 4; fill: rgb(0,0,0); fill-rule: nonzero; opacity: 1;"  transform=" translate(-2, -2)" d="M 0 0 L 4 0 L 4 4 L 0 4 z" stroke-linecap="round" />
</g>
		<g transform="matrix(1 0 0 1 -670.9 -36)"  >
<path style="stroke: rgb(0,0,0); stroke-width: 0; stroke-dasharray: none; stroke-linecap: round; stroke-dashoffset: 0; stroke-linejoin: miter; stroke-miterlimit: 4; fill: rgb(0,0,0); fill-rule: nonzero; opacity: 1;"  transform=" translate(-2, -2)" d="M 0 0 L 4 0 L 4 4 L 0 4 z" stroke-linecap="round" />
</g>
		<g transform="matrix(1 0 0 1 -651.2 -35.7)"  >
<path style="stroke: rgb(0,0,0); stroke-width: 0; stroke-dasharray: none; stroke-linecap: round; stroke-dashoffset: 0; stroke-linejoin: miter; stroke-miterlimit: 4; fill: rgb(0,0,0); fill-rule: nonzero; opacity: 1;"  transform=" translate(-2, -2)" d="M 0 0 L 4 0 L 4 4 L 0 4 z" stroke-linecap="round" />
</g>
		<g transform="matrix(1 0 0 1 -829.8 -36.4)"  >
<path style="stroke: rgb(0,0,0); stroke-width: 0; stroke-dasharray: none; stroke-linecap: round; stroke-dashoffset: 0; stroke-linejoin: miter; stroke-miterlimit: 4; fill: rgb(0,0,0); fill-rule: nonzero; opacity: 1;"  transform=" translate(-2, -2)" d="M 0 0 L 4 0 L 4 4 L 0 4 z" stroke-linecap="round" />
</g>
		<g transform="matrix(1 0 0 1 -810.1 -36.7)"  >
<path style="stroke: rgb(0,0,0); stroke-width: 0; stroke-dasharray: none; stroke-linecap: round; stroke-dashoffset: 0; stroke-linejoin: miter; stroke-miterlimit: 4; fill: rgb(0,0,0); fill-rule: nonzero; opacity: 1;"  transform=" translate(-2, -2)" d="M 0 0 L 4 0 L 4 4 L 0 4 z" stroke-linecap="round" />
</g>
</g>
</g>
</svg>