<?xml version="1.0" standalone="no"?>
<!DOCTYPE svg PUBLIC "-//W3C//DTD SVG 1.1//EN"
"http://www.w3.org/Graphics/SVG/1.1/DTD/svg11.dtd">

<svg height="164" transform="translate(0.5,0.5)" version="1.1" width="273" xmlns="http://www.w3.org/2000/svg" xmlns:nch="http://www.nchsoftware.com/drawpad/" xmlns:xlink="http://www.w3.org/1999/xlink"><rect fill="rgb(255,255,255)" fill-opacity="0.000" height="164" id="background" width="273" x="0" y="0"/><g class="Layer"><line fill-opacity="1.000" nch:dashstyle="0" nch:endcap="0" nch:startcap="0" stroke="rgb(0,0,0)" stroke-lincap="butt" stroke-opacity="1.000" stroke-width="8" x1="137.48" x2="23.31" y1="148.00" y2="147.56"/><line fill-opacity="1.000" nch:dashstyle="0" nch:endcap="0" nch:startcap="0" stroke="rgb(0,0,0)" stroke-lincap="butt" stroke-opacity="1.000" stroke-width="8" x1="150.12" x2="184.54" y1="147.56" y2="147.12"/><line fill-opacity="1.000" nch:dashstyle="0" nch:endcap="0" nch:startcap="0" stroke="rgb(0,0,0)" stroke-lincap="butt" stroke-opacity="1.000" stroke-width="8" x1="215.48" x2="235.96" y1="91.35" y2="150.17"/><line fill-opacity="1.000" nch:dashstyle="0" nch:endcap="0" nch:startcap="0" stroke="rgb(0,0,0)" stroke-lincap="butt" stroke-opacity="1.000" stroke-width="8" x1="255.13" x2="234.21" y1="147.12" y2="148.00"/><line fill-opacity="1.000" nch:dashstyle="0" nch:endcap="0" nch:startcap="0" stroke="rgb(0,0,0)" stroke-lincap="butt" stroke-opacity="1.000" stroke-width="8" x1="247.29" x2="254.26" y1="124.47" y2="147.56"/><line fill-opacity="1.000" nch:dashstyle="0" nch:endcap="0" nch:startcap="0" stroke="rgb(0,0,0)" stroke-lincap="butt" stroke-opacity="1.000" stroke-width="8" x1="242.06" x2="225.50" y1="112.27" y2="64.34"/><line fill-opacity="1.000" nch:dashstyle="0" nch:endcap="0" nch:startcap="0" stroke="rgb(0,0,0)" stroke-lincap="butt" stroke-opacity="1.000" stroke-width="8" x1="192.38" x2="239.44" y1="141.46" y2="35.14"/><line fill-opacity="1.000" nch:dashstyle="0" nch:endcap="0" nch:startcap="0" stroke="rgb(0,0,0)" stroke-lincap="butt" stroke-opacity="1.000" stroke-width="8" x1="229.42" x2="103.49" y1="16.41" y2="15.97"/><line fill-opacity="1.000" nch:dashstyle="0" nch:endcap="0" nch:startcap="0" stroke="rgb(0,0,0)" stroke-lincap="butt" stroke-opacity="1.000" stroke-width="8" x1="89.55" x2="66.45" y1="15.97" y2="15.97"/><line fill-opacity="1.000" nch:dashstyle="0" nch:endcap="0" nch:startcap="0" stroke="rgb(0,0,0)" stroke-lincap="butt" stroke-opacity="1.000" stroke-width="8" x1="60.35" x2="14.16" y1="22.51" y2="126.65"/><line fill-opacity="1.000" nch:dashstyle="0" nch:endcap="0" nch:startcap="0" stroke="rgb(0,0,0)" stroke-lincap="butt" stroke-opacity="1.000" stroke-width="8" x1="74.30" x2="225.06" y1="31.66" y2="32.53"/><line fill-opacity="1.000" nch:dashstyle="0" nch:endcap="0" nch:startcap="0" stroke="rgb(0,0,0)" stroke-lincap="butt" stroke-opacity="1.000" stroke-width="8" x1="178.87" x2="223.76" y1="131.44" y2="31.22"/><line fill-opacity="1.000" nch:dashstyle="0" nch:endcap="0" nch:startcap="0" stroke="rgb(0,0,0)" stroke-lincap="butt" stroke-opacity="1.000" stroke-width="8" x1="174.08" x2="129.20" y1="32.96" y2="131.87"/><line fill-opacity="1.000" nch:dashstyle="0" nch:endcap="0" nch:startcap="0" stroke="rgb(0,0,0)" stroke-lincap="butt" stroke-opacity="1.000" stroke-width="8" x1="78.65" x2="123.10" y1="132.31" y2="33.40"/><line fill-opacity="1.000" nch:dashstyle="0" nch:endcap="0" nch:startcap="0" stroke="rgb(0,0,0)" stroke-lincap="butt" stroke-opacity="1.000" stroke-width="8" x1="72.99" x2="29.85" y1="32.53" y2="130.13"/><line fill-opacity="1.000" nch:dashstyle="0" nch:endcap="0" nch:startcap="0" stroke="rgb(0,0,0)" stroke-lincap="butt" stroke-opacity="1.000" stroke-width="8" x1="192.82" x2="46.84" y1="99.19" y2="98.32"/><line fill-opacity="1.000" nch:dashstyle="0" nch:endcap="0" nch:startcap="0" stroke="rgb(0,0,0)" stroke-lincap="butt" stroke-opacity="1.000" stroke-width="8" x1="205.45" x2="58.61" y1="66.08" y2="65.64"/><line fill-opacity="1.000" nch:dashstyle="0" nch:endcap="0" nch:startcap="0" stroke="rgb(0,0,0)" stroke-lincap="butt" stroke-opacity="1.000" stroke-width="8" x1="181.05" x2="28.54" y1="131.87" y2="131.87"/><symbol id="Symbol0"><path d=" M-0.00,-0.00 L6.00,-0.00 L6.00,6.00 L-0.00,6.00 z" fill="rgb(0,0,0)" fill-opacity="1.000" stroke-linecap="round" stroke-width="0"/></symbol><g nch:brush-type="8" nch:grouptype="stamp" nch:path="180.8,147.5,191.8,147.5,193.8,138.5 193.8,138.5," nch:path-opacity="255" nch:stamp="marker" nch:stampwidth="6.000000" stroke="rgb(0,0,0)" stroke-width="0"><use x="177.8" xlink:href="#Symbol0" y="144.5"/><use x="178.8" xlink:href="#Symbol0" y="144.4"/><use x="179.8" xlink:href="#Symbol0" y="144.4"/><use x="180.8" xlink:href="#Symbol0" y="144.2"/><use x="181.8" xlink:href="#Symbol0" y="144.0"/><use x="182.7" xlink:href="#Symbol0" y="143.8"/><use x="183.6" xlink:href="#Symbol0" y="143.5"/><use x="184.5" xlink:href="#Symbol0" y="143.1"/><use x="185.4" xlink:href="#Symbol0" y="142.6"/><use x="186.2" xlink:href="#Symbol0" y="142.1"/><use x="186.9" xlink:href="#Symbol0" y="141.5"/><use x="187.7" xlink:href="#Symbol0" y="140.8"/><use x="188.3" xlink:href="#Symbol0" y="140.1"/><use x="188.9" xlink:href="#Symbol0" y="139.4"/><use x="189.5" xlink:href="#Symbol0" y="138.6"/><use x="189.9" xlink:href="#Symbol0" y="137.7"/><use x="190.3" xlink:href="#Symbol0" y="136.9"/><use x="190.7" xlink:href="#Symbol0" y="136.0"/></g><symbol id="Symbol1"><path d=" M-0.00,-0.00 L6.00,-0.00 L6.00,6.00 L-0.00,6.00 z" fill="rgb(0,0,0)" fill-opacity="1.000" stroke-linecap="round" stroke-width="0"/></symbol><g nch:brush-type="8" nch:grouptype="stamp" nch:path="70.4,15.8,59.4,17.0,58.4,26.1 58.4,26.1," nch:path-opacity="255" nch:stamp="marker" nch:stampwidth="6.000000" stroke="rgb(0,0,0)" stroke-width="0"><use x="67.4" xlink:href="#Symbol1" y="12.8"/><use x="66.4" xlink:href="#Symbol1" y="12.9"/><use x="65.4" xlink:href="#Symbol1" y="13.1"/><use x="64.5" xlink:href="#Symbol1" y="13.4"/><use x="63.5" xlink:href="#Symbol1" y="13.7"/><use x="62.6" xlink:href="#Symbol1" y="14.0"/><use x="61.7" xlink:href="#Symbol1" y="14.4"/><use x="60.9" xlink:href="#Symbol1" y="14.9"/><use x="60.1" xlink:href="#Symbol1" y="15.5"/><use x="59.3" xlink:href="#Symbol1" y="16.1"/><use x="58.7" xlink:href="#Symbol1" y="16.7"/><use x="58.0" xlink:href="#Symbol1" y="17.5"/><use x="57.4" xlink:href="#Symbol1" y="18.2"/><use x="56.9" xlink:href="#Symbol1" y="19.1"/><use x="56.4" xlink:href="#Symbol1" y="19.9"/><use x="56.1" xlink:href="#Symbol1" y="20.8"/><use x="55.7" xlink:href="#Symbol1" y="21.7"/><use x="55.5" xlink:href="#Symbol1" y="22.6"/></g><symbol id="Symbol2"><path d=" M-0.00,-0.00 L6.00,-0.00 L6.00,6.00 L-0.00,6.00 z" fill="rgb(0,0,0)" fill-opacity="1.000" stroke-linecap="round" stroke-width="0"/></symbol><g nch:brush-type="8" nch:grouptype="stamp" nch:path="24.8,147.4,24.8,147.4,-5.2,155.8 13.8,126.5," nch:path-opacity="255" nch:stamp="marker" nch:stampwidth="6.000000" stroke="rgb(0,0,0)" stroke-width="0"><use x="21.8" xlink:href="#Symbol2" y="144.4"/><use x="20.9" xlink:href="#Symbol2" y="144.7"/><use x="19.9" xlink:href="#Symbol2" y="144.9"/><use x="18.9" xlink:href="#Symbol2" y="145.1"/><use x="17.8" xlink:href="#Symbol2" y="145.2"/><use x="16.8" xlink:href="#Symbol2" y="145.4"/><use x="15.8" xlink:href="#Symbol2" y="145.4"/><use x="14.7" xlink:href="#Symbol2" y="145.5"/><use x="13.7" xlink:href="#Symbol2" y="145.5"/><use x="12.6" xlink:href="#Symbol2" y="145.5"/><use x="11.6" xlink:href="#Symbol2" y="145.4"/><use x="10.6" xlink:href="#Symbol2" y="145.3"/><use x="9.6" xlink:href="#Symbol2" y="145.1"/><use x="8.7" xlink:href="#Symbol2" y="144.8"/><use x="7.8" xlink:href="#Symbol2" y="144.4"/><use x="7.0" xlink:href="#Symbol2" y="143.9"/><use x="6.3" xlink:href="#Symbol2" y="143.3"/><use x="5.6" xlink:href="#Symbol2" y="142.6"/><use x="5.1" xlink:href="#Symbol2" y="141.7"/><use x="4.8" xlink:href="#Symbol2" y="140.8"/><use x="4.6" xlink:href="#Symbol2" y="139.7"/><use x="4.5" xlink:href="#Symbol2" y="138.7"/><use x="4.6" xlink:href="#Symbol2" y="137.7"/><use x="4.7" xlink:href="#Symbol2" y="136.6"/><use x="4.9" xlink:href="#Symbol2" y="135.6"/><use x="5.2" xlink:href="#Symbol2" y="134.6"/><use x="5.5" xlink:href="#Symbol2" y="133.6"/><use x="5.9" xlink:href="#Symbol2" y="132.6"/><use x="6.3" xlink:href="#Symbol2" y="131.7"/><use x="6.7" xlink:href="#Symbol2" y="130.7"/><use x="7.2" xlink:href="#Symbol2" y="129.8"/><use x="7.6" xlink:href="#Symbol2" y="128.9"/><use x="8.1" xlink:href="#Symbol2" y="128.0"/><use x="8.6" xlink:href="#Symbol2" y="127.1"/><use x="9.1" xlink:href="#Symbol2" y="126.2"/><use x="9.7" xlink:href="#Symbol2" y="125.3"/><use x="10.2" xlink:href="#Symbol2" y="124.4"/><use x="10.7" xlink:href="#Symbol2" y="123.6"/></g><symbol id="Symbol3"><path d=" M-0.00,-0.00 L6.00,-0.00 L6.00,6.00 L-0.00,6.00 z" fill="rgb(0,0,0)" fill-opacity="1.000" stroke-linecap="round" stroke-width="0"/></symbol><g nch:brush-type="8" nch:grouptype="stamp" nch:path="229.6,16.2,229.6,16.2,260.6,13.7 236.4,38.8," nch:path-opacity="255" nch:stamp="marker" nch:stampwidth="6.000000" stroke="rgb(0,0,0)" stroke-width="0"><use x="226.6" xlink:href="#Symbol3" y="13.2"/><use x="227.5" xlink:href="#Symbol3" y="13.1"/><use x="228.6" xlink:href="#Symbol3" y="13.1"/><use x="229.6" xlink:href="#Symbol3" y="13.1"/><use x="230.6" xlink:href="#Symbol3" y="13.2"/><use x="231.7" xlink:href="#Symbol3" y="13.2"/><use x="232.7" xlink:href="#Symbol3" y="13.3"/><use x="233.8" xlink:href="#Symbol3" y="13.5"/><use x="234.8" xlink:href="#Symbol3" y="13.6"/><use x="235.8" xlink:href="#Symbol3" y="13.9"/><use x="236.8" xlink:href="#Symbol3" y="14.1"/><use x="237.7" xlink:href="#Symbol3" y="14.5"/><use x="238.7" xlink:href="#Symbol3" y="14.9"/><use x="239.5" xlink:href="#Symbol3" y="15.3"/><use x="240.3" xlink:href="#Symbol3" y="15.9"/><use x="241.0" xlink:href="#Symbol3" y="16.5"/><use x="241.6" xlink:href="#Symbol3" y="17.2"/><use x="242.1" xlink:href="#Symbol3" y="18.1"/><use x="242.4" xlink:href="#Symbol3" y="19.0"/><use x="242.6" xlink:href="#Symbol3" y="20.0"/><use x="242.6" xlink:href="#Symbol3" y="21.1"/><use x="242.5" xlink:href="#Symbol3" y="22.1"/><use x="242.2" xlink:href="#Symbol3" y="23.1"/><use x="241.9" xlink:href="#Symbol3" y="24.1"/><use x="241.5" xlink:href="#Symbol3" y="25.0"/><use x="241.0" xlink:href="#Symbol3" y="26.0"/><use x="240.5" xlink:href="#Symbol3" y="26.9"/><use x="239.9" xlink:href="#Symbol3" y="27.8"/><use x="239.4" xlink:href="#Symbol3" y="28.7"/><use x="238.8" xlink:href="#Symbol3" y="29.5"/><use x="238.2" xlink:href="#Symbol3" y="30.3"/><use x="237.5" xlink:href="#Symbol3" y="31.1"/><use x="236.9" xlink:href="#Symbol3" y="31.9"/><use x="236.2" xlink:href="#Symbol3" y="32.7"/><use x="235.5" xlink:href="#Symbol3" y="33.5"/><use x="234.9" xlink:href="#Symbol3" y="34.3"/><use x="234.2" xlink:href="#Symbol3" y="35.0"/><use x="233.5" xlink:href="#Symbol3" y="35.7"/></g><symbol id="Symbol4"><path d=" M-0.00,-0.00 L3.00,-0.00 L3.00,3.00 L-0.00,3.00 z" fill="rgb(0,0,0)" fill-opacity="1.000" stroke-linecap="round" stroke-width="0"/></symbol><g nch:brush-type="8" nch:grouptype="stamp" nch:path="256.6,146.4,256.6,146.4,256.4,146.6 256.4,146.8,256.3,147.0,256.4,147.3 256.4,147.5,256.3,147.7,256.3,147.9 256.1,148.0,256.0,148.0,255.6,147.9 255.5,148.0,255.3,148.1,255.3,148.4 255.2,148.7,255.2,148.9,255.1,149.2 255.0,149.3,254.9,149.5,254.8,149.6 254.8,149.8,254.7,150.0,254.7,150.5 254.8,150.5,254.8,150.5,255.0,149.8 255.0,149.6,255.0,149.3,255.0,149.1 255.0,148.9,255.0,148.7,255.1,148.6 255.2,148.4,255.3,148.2,255.6,147.9 255.7,147.7,255.8,147.6,255.7,147.4 255.7,147.3,255.7,147.3,255.7,147.1 255.7,147.1," nch:path-opacity="255" nch:stamp="marker" nch:stampwidth="3.000000" stroke="rgb(0,0,0)" stroke-width="0"><use x="255.1" xlink:href="#Symbol4" y="144.9"/><use x="254.9" xlink:href="#Symbol4" y="145.8"/><use x="254.2" xlink:href="#Symbol4" y="146.4"/><use x="253.7" xlink:href="#Symbol4" y="147.3"/><use x="253.3" xlink:href="#Symbol4" y="148.2"/><use x="253.5" xlink:href="#Symbol4" y="147.2"/><use x="254.1" xlink:href="#Symbol4" y="146.4"/></g><symbol id="Symbol5"><path d=" M-0.00,-0.00 L3.00,-0.00 L3.00,3.00 L-0.00,3.00 z" fill="rgb(0,0,0)" fill-opacity="1.000" stroke-linecap="round" stroke-width="0"/></symbol><g nch:brush-type="8" nch:grouptype="stamp" nch:path="234.6,149.8,234.6,149.8,234.0,149.7 233.9,149.8,233.9,149.9,233.9,150.2 234.2,150.3,234.4,150.3,235.2,150.2 235.3,150.3,235.4,150.3,234.8,150.5 234.6,150.5,234.4,150.5,234.1,150.5 233.9,150.5,233.9,150.5,233.7,150.5 233.7,150.5," nch:path-opacity="255" nch:stamp="marker" nch:stampwidth="3.000000" stroke="rgb(0,0,0)" stroke-width="0"><use x="233.1" xlink:href="#Symbol5" y="148.3"/><use x="232.5" xlink:href="#Symbol5" y="149.0"/></g><symbol id="Symbol6"><path d=" M-0.00,-0.00 L3.00,-0.00 L3.00,3.00 L-0.00,3.00 z" fill="rgb(0,0,0)" fill-opacity="1.000" stroke-linecap="round" stroke-width="0"/></symbol><g nch:brush-type="8" nch:grouptype="stamp" nch:path="240.1,112.5,240.1,112.5,242.7,112.5 243.3,112.5,243.3,112.5,243.5,112.5 243.5,112.5," nch:path-opacity="255" nch:stamp="marker" nch:stampwidth="3.000000" stroke="rgb(0,0,0)" stroke-width="0"><use x="238.6" xlink:href="#Symbol6" y="111.0"/><use x="239.6" xlink:href="#Symbol6" y="111.0"/><use x="240.6" xlink:href="#Symbol6" y="111.0"/><use x="241.5" xlink:href="#Symbol6" y="111.0"/></g><symbol id="Symbol7"><path d=" M-0.00,-0.00 L3.00,-0.00 L3.00,3.00 L-0.00,3.00 z" fill="rgb(0,0,0)" fill-opacity="1.000" stroke-linecap="round" stroke-width="0"/></symbol><g nch:brush-type="8" nch:grouptype="stamp" nch:path="245.4,126.4,245.4,126.4,245.5,126.1 245.6,126.0,245.8,125.9,246.0,125.8 246.3,125.8,246.6,125.7,247.0,125.8 247.2,125.8,247.4,125.7,247.5,125.6 247.7,125.5,247.8,125.4,248.0,125.4 248.1,125.3,248.3,125.2,248.2,125.1 248.6,125.1,248.9,125.0,249.9,125.1 250.2,125.1,250.2,125.1,250.4,125.1 250.4,125.1," nch:path-opacity="255" nch:stamp="marker" nch:stampwidth="3.000000" stroke="rgb(0,0,0)" stroke-width="0"><use x="243.9" xlink:href="#Symbol7" y="124.9"/><use x="244.6" xlink:href="#Symbol7" y="124.3"/><use x="245.6" xlink:href="#Symbol7" y="124.3"/><use x="246.5" xlink:href="#Symbol7" y="123.9"/><use x="247.4" xlink:href="#Symbol7" y="123.6"/><use x="248.4" xlink:href="#Symbol7" y="123.6"/></g><symbol id="Symbol8"><path d=" M-0.00,-0.00 L3.00,-0.00 L3.00,3.00 L-0.00,3.00 z" fill="rgb(0,0,0)" fill-opacity="1.000" stroke-linecap="round" stroke-width="0"/></symbol><g nch:brush-type="8" nch:grouptype="stamp" nch:path="151.2,145.2,151.2,145.2,151.1,145.7 151.0,145.9,150.9,146.1,150.8,146.1 150.8,146.4,150.8,146.6,150.8,147.2 150.8,147.5,150.8,147.8,150.6,147.7 150.6,148.0,150.5,148.2,150.4,148.6 150.3,148.9,150.3,149.2,150.3,149.6 150.3,149.8,150.3,149.8,150.3,150.0 150.3,150.0," nch:path-opacity="255" nch:stamp="marker" nch:stampwidth="3.000000" stroke="rgb(0,0,0)" stroke-width="0"><use x="149.7" xlink:href="#Symbol8" y="143.7"/><use x="149.4" xlink:href="#Symbol8" y="144.6"/><use x="149.3" xlink:href="#Symbol8" y="145.6"/><use x="149.0" xlink:href="#Symbol8" y="146.6"/><use x="148.8" xlink:href="#Symbol8" y="147.5"/><use x="148.8" xlink:href="#Symbol8" y="148.5"/></g><symbol id="Symbol9"><path d=" M-0.00,-0.00 L3.00,-0.00 L3.00,3.00 L-0.00,3.00 z" fill="rgb(0,0,0)" fill-opacity="1.000" stroke-linecap="round" stroke-width="0"/></symbol><g nch:brush-type="8" nch:grouptype="stamp" nch:path="136.4,145.5,136.4,145.5,136.3,146.2 136.4,146.4,136.4,146.6,136.7,146.3 136.8,146.6,136.9,146.9,136.8,147.9 136.8,148.2,136.9,148.5,137.0,148.3 137.0,148.7,137.1,149.0,137.1,150.0 137.0,150.3,137.0,150.3,136.8,150.3 136.8,150.3," nch:path-opacity="255" nch:stamp="marker" nch:stampwidth="3.000000" stroke="rgb(0,0,0)" stroke-width="0"><use x="134.9" xlink:href="#Symbol9" y="144.0"/><use x="134.9" xlink:href="#Symbol9" y="144.9"/><use x="135.3" xlink:href="#Symbol9" y="145.8"/><use x="135.3" xlink:href="#Symbol9" y="146.8"/><use x="135.6" xlink:href="#Symbol9" y="147.7"/><use x="135.6" xlink:href="#Symbol9" y="148.7"/></g><symbol id="Symbol10"><path d=" M-0.00,-0.00 L3.00,-0.00 L3.00,3.00 L-0.00,3.00 z" fill="rgb(0,0,0)" fill-opacity="1.000" stroke-linecap="round" stroke-width="0"/></symbol><g nch:brush-type="8" nch:grouptype="stamp" nch:path="70.9,33.2,70.9,33.2,71.2,33.2 71.3,33.0,71.4,32.8,71.3,32.4 71.3,32.1,71.4,31.8,71.5,31.6 71.5,31.4,71.6,31.2,71.7,31.1 71.8,30.9,71.9,30.8,72.1,30.8 72.2,30.7,72.4,30.6,72.5,30.5 72.7,30.5,72.9,30.4,73.1,30.5 73.4,30.5,73.6,30.4,73.9,30.3 74.1,30.3,74.3,30.2,74.4,30.1 74.5,30.0,74.6,29.9,74.8,29.7 74.8,29.6,74.8,29.4,74.7,29.2 74.5,29.1,74.4,29.0,74.0,29.1 73.8,29.1,73.6,29.1,73.5,29.2 73.4,29.3,73.3,29.5,73.5,29.8 73.4,30.0,73.3,30.2,73.0,30.3 72.9,30.5,72.8,30.7,72.7,30.7 72.7,31.2,72.7,31.6,72.7,32.6 72.7,33.0,72.7,33.4,72.7,33.4 72.9,33.5,73.2,33.5,74.0,33.5 74.3,33.5,74.3,33.5,74.5,33.5 74.5,33.5," nch:path-opacity="255" nch:stamp="marker" nch:stampwidth="3.000000" stroke="rgb(0,0,0)" stroke-width="0"><use x="69.4" xlink:href="#Symbol10" y="31.7"/><use x="69.8" xlink:href="#Symbol10" y="30.9"/><use x="70.0" xlink:href="#Symbol10" y="29.9"/><use x="70.7" xlink:href="#Symbol10" y="29.2"/><use x="71.7" xlink:href="#Symbol10" y="29.0"/><use x="72.6" xlink:href="#Symbol10" y="28.7"/><use x="73.2" xlink:href="#Symbol10" y="27.9"/><use x="72.3" xlink:href="#Symbol10" y="27.6"/><use x="71.9" xlink:href="#Symbol10" y="28.5"/><use x="71.3" xlink:href="#Symbol10" y="29.2"/><use x="71.2" xlink:href="#Symbol10" y="30.2"/><use x="71.2" xlink:href="#Symbol10" y="31.2"/><use x="71.7" xlink:href="#Symbol10" y="32.0"/><use x="72.7" xlink:href="#Symbol10" y="32.0"/></g><symbol id="Symbol11"><path d=" M-0.00,-0.00 L3.00,-0.00 L3.00,3.00 L-0.00,3.00 z" fill="rgb(0,0,0)" fill-opacity="1.000" stroke-linecap="round" stroke-width="0"/></symbol><g nch:brush-type="8" nch:grouptype="stamp" nch:path="224.3,30.0,224.3,30.0,224.5,30.3 224.5,30.5,224.6,30.6,224.7,30.7 224.8,30.9,224.8,31.1,224.7,31.4 224.8,31.6,224.8,31.8,225.0,31.9 225.0,32.1,225.0,32.3,225.0,32.6 225.0,32.8,225.0,33.0,225.2,33.3 225.2,33.2,225.3,33.2,225.3,32.6 225.2,32.3,225.1,32.0,224.9,31.6 224.8,31.4,224.7,31.2,224.5,31.1 224.5,30.9,224.5,30.8,224.7,30.5 224.8,30.5,224.8,30.5,225.0,30.7 225.0,30.9,225.0,31.1,225.0,31.5 225.0,31.6,225.0,31.6,225.2,31.6 225.2,31.6," nch:path-opacity="255" nch:stamp="marker" nch:stampwidth="3.000000" stroke="rgb(0,0,0)" stroke-width="0"><use x="222.8" xlink:href="#Symbol11" y="28.5"/><use x="223.3" xlink:href="#Symbol11" y="29.4"/><use x="223.4" xlink:href="#Symbol11" y="30.4"/><use x="223.5" xlink:href="#Symbol11" y="31.3"/><use x="223.5" xlink:href="#Symbol11" y="30.3"/><use x="223.0" xlink:href="#Symbol11" y="29.5"/><use x="223.7" xlink:href="#Symbol11" y="30.1"/></g><symbol id="Symbol12"><path d=" M-0.00,-0.00 L3.00,-0.00 L3.00,3.00 L-0.00,3.00 z" fill="rgb(0,0,0)" fill-opacity="1.000" stroke-linecap="round" stroke-width="0"/></symbol><g nch:brush-type="8" nch:grouptype="stamp" nch:path="27.8,129.2,27.8,129.2,28.0,129.4 28.0,129.6,28.1,129.9,28.0,130.3 28.0,130.6,28.1,130.8,28.1,131.1 28.3,131.3,28.4,131.4,28.6,131.5 28.7,131.7,28.8,131.9,28.9,132.2 28.9,132.4,29.0,132.6,29.1,132.7 29.2,132.9,29.3,133.0,29.3,133.2 29.4,133.3,29.5,133.5,29.7,133.6 29.9,133.8,30.0,133.9,29.9,134.1 30.1,134.2,30.2,134.3,30.5,134.4 30.8,134.5,31.1,134.5,31.7,134.5 31.9,134.5,31.9,134.5,32.2,134.5 32.2,134.5," nch:path-opacity="255" nch:stamp="marker" nch:stampwidth="3.000000" stroke="rgb(0,0,0)" stroke-width="0"><use x="26.3" xlink:href="#Symbol12" y="127.7"/><use x="26.5" xlink:href="#Symbol12" y="128.7"/><use x="26.7" xlink:href="#Symbol12" y="129.6"/><use x="27.3" xlink:href="#Symbol12" y="130.4"/><use x="27.6" xlink:href="#Symbol12" y="131.3"/><use x="28.2" xlink:href="#Symbol12" y="132.1"/><use x="28.8" xlink:href="#Symbol12" y="132.8"/><use x="29.8" xlink:href="#Symbol12" y="133.0"/></g><symbol id="Symbol13"><path d=" M-0.00,-0.00 L3.00,-0.00 L3.00,3.00 L-0.00,3.00 z" fill="rgb(0,0,0)" fill-opacity="1.000" stroke-linecap="round" stroke-width="0"/></symbol><g nch:brush-type="8" nch:grouptype="stamp" nch:path="179.9,134.0,179.9,134.0,179.7,132.3 179.9,131.9,180.0,131.6,180.6,131.8 180.8,131.7,181.0,131.6,181.3,131.5 181.3,131.5,181.2,131.4,180.8,131.4 180.6,131.5,180.4,131.5,180.2,131.6 180.1,131.7,180.0,131.8,180.0,132.0 179.9,132.2,179.8,132.3,179.6,132.5 179.6,132.6,179.7,132.7,180.0,132.8 180.1,132.9,180.1,132.9,180.3,132.9 180.3,132.9," nch:path-opacity="255" nch:stamp="marker" nch:stampwidth="3.000000" stroke="rgb(0,0,0)" stroke-width="0"><use x="178.4" xlink:href="#Symbol13" y="132.5"/><use x="178.3" xlink:href="#Symbol13" y="131.5"/><use x="178.4" xlink:href="#Symbol13" y="130.5"/><use x="179.3" xlink:href="#Symbol13" y="130.2"/><use x="178.4" xlink:href="#Symbol13" y="130.6"/><use x="178.8" xlink:href="#Symbol13" y="131.4"/></g><symbol id="Symbol14"><path d=" M-0.00,-0.00 L3.00,-0.00 L3.00,3.00 L-0.00,3.00 z" fill="rgb(0,0,0)" fill-opacity="1.000" stroke-linecap="round" stroke-width="0"/></symbol><g nch:brush-type="8" nch:grouptype="stamp" nch:path="181.0,131.5,181.0,131.5,181.1,132.2 181.0,132.4,180.9,132.6,180.7,132.7 180.6,132.9,180.4,133.0,180.3,133.0 180.1,133.1,180.0,133.2,179.8,133.2 179.6,133.3,179.5,133.5,179.5,133.8 179.4,134.0,179.3,134.2,179.3,134.2 179.2,134.2,179.2,134.2,179.0,134.2 179.0,134.2," nch:path-opacity="255" nch:stamp="marker" nch:stampwidth="3.000000" stroke="rgb(0,0,0)" stroke-width="0"><use x="179.5" xlink:href="#Symbol14" y="130.0"/><use x="179.5" xlink:href="#Symbol14" y="130.9"/><use x="178.7" xlink:href="#Symbol14" y="131.5"/><use x="178.0" xlink:href="#Symbol14" y="132.2"/></g><symbol id="Symbol15"><path d=" M-0.00,-0.00 L3.00,-0.00 L3.00,3.00 L-0.00,3.00 z" fill="rgb(0,0,0)" fill-opacity="1.000" stroke-linecap="round" stroke-width="0"/></symbol><g nch:brush-type="8" nch:grouptype="stamp" nch:path="237.8,18.3,237.8,18.3,238.2,18.3 238.5,18.3,238.8,18.4,239.2,18.7 239.4,18.8,239.7,18.9,239.7,18.9 239.9,19.0,240.1,19.1,240.3,19.4 240.6,19.5,240.8,19.6,241.1,19.6 241.3,19.7,241.4,19.8,241.4,20.0 241.5,20.2,241.6,20.3,241.6,20.5 241.7,20.6,241.9,20.7,242.3,20.7 242.4,20.9,242.6,21.0,242.5,21.1 242.6,21.3,242.8,21.5,243.1,22.0 243.3,22.2,243.5,22.5,243.6,22.7 243.8,22.9,243.9,23.2,244.1,23.4 244.2,23.6,244.4,23.8,244.4,24.0 244.5,24.3,244.5,24.6,244.5,25.0 244.5,25.2,244.5,25.2,244.5,25.4 244.5,25.4," nch:path-opacity="255" nch:stamp="marker" nch:stampwidth="3.000000" stroke="rgb(0,0,0)" stroke-width="0"><use x="236.3" xlink:href="#Symbol15" y="16.8"/><use x="237.3" xlink:href="#Symbol15" y="17.0"/><use x="238.1" xlink:href="#Symbol15" y="17.4"/><use x="239.0" xlink:href="#Symbol15" y="17.9"/><use x="239.9" xlink:href="#Symbol15" y="18.4"/><use x="240.4" xlink:href="#Symbol15" y="19.2"/><use x="241.1" xlink:href="#Symbol15" y="19.8"/><use x="241.7" xlink:href="#Symbol15" y="20.6"/><use x="242.3" xlink:href="#Symbol15" y="21.4"/><use x="242.8" xlink:href="#Symbol15" y="22.2"/><use x="243.0" xlink:href="#Symbol15" y="23.2"/></g><symbol id="Symbol16"><path d=" M-0.00,-0.00 L3.00,-0.00 L3.00,3.00 L-0.00,3.00 z" fill="rgb(0,0,0)" fill-opacity="1.000" stroke-linecap="round" stroke-width="0"/></symbol><g nch:brush-type="8" nch:grouptype="stamp" nch:path="241.0,19.3,241.0,19.3,241.0,19.9 241.0,20.2,241.1,20.5,241.4,20.6 241.5,21.1,241.6,21.5,241.4,22.5 241.5,22.9,241.5,23.3,241.7,22.6 241.7,23.6,241.8,24.6,241.8,27.8 241.7,28.9,241.6,29.9,241.2,29.7 241.0,30.0,240.9,30.3,241.0,30.6 240.8,30.7,240.6,30.9,240.3,30.8 240.1,30.9,240.0,31.1,240.0,31.5 239.9,31.6,239.8,31.7,239.7,31.6 239.7,31.6,239.7,31.6,239.7,31.9 239.7,31.9," nch:path-opacity="255" nch:stamp="marker" nch:stampwidth="3.000000" stroke="rgb(0,0,0)" stroke-width="0"><use x="239.5" xlink:href="#Symbol16" y="17.8"/><use x="239.5" xlink:href="#Symbol16" y="18.7"/><use x="240.0" xlink:href="#Symbol16" y="19.6"/><use x="240.0" xlink:href="#Symbol16" y="20.6"/><use x="240.0" xlink:href="#Symbol16" y="21.5"/><use x="240.2" xlink:href="#Symbol16" y="22.5"/><use x="240.3" xlink:href="#Symbol16" y="23.5"/><use x="240.3" xlink:href="#Symbol16" y="24.4"/><use x="240.3" xlink:href="#Symbol16" y="25.4"/><use x="240.3" xlink:href="#Symbol16" y="26.4"/><use x="240.2" xlink:href="#Symbol16" y="27.4"/><use x="239.8" xlink:href="#Symbol16" y="28.3"/><use x="239.4" xlink:href="#Symbol16" y="29.1"/><use x="238.5" xlink:href="#Symbol16" y="29.6"/></g><symbol id="Symbol17"><path d=" M-0.00,-0.00 L3.00,-0.00 L3.00,3.00 L-0.00,3.00 z" fill="rgb(0,0,0)" fill-opacity="1.000" stroke-linecap="round" stroke-width="0"/></symbol><g nch:brush-type="8" nch:grouptype="stamp" nch:path="230.3,18.3,230.3,18.3,232.4,18.3 233.0,18.3,233.6,18.4,233.5,18.5 233.7,18.6,233.9,18.6,234.2,18.7 234.4,18.8,234.6,18.9,234.3,19.0 234.8,19.0,235.4,19.1,237.3,19.0 237.8,19.0,238.4,19.1,238.2,19.1 238.3,19.3,238.4,19.4,238.4,19.6 238.5,19.7,238.7,19.8,239.0,19.9 239.2,19.9,239.4,20.0,239.5,20.1 239.7,20.2,239.8,20.3,240.0,20.3 240.1,20.4,240.2,20.5,240.1,20.6 240.1,20.6,240.1,20.6,240.3,20.6 240.3,20.6," nch:path-opacity="255" nch:stamp="marker" nch:stampwidth="3.000000" stroke="rgb(0,0,0)" stroke-width="0"><use x="228.8" xlink:href="#Symbol17" y="16.8"/><use x="229.8" xlink:href="#Symbol17" y="16.8"/><use x="230.8" xlink:href="#Symbol17" y="16.8"/><use x="231.8" xlink:href="#Symbol17" y="16.9"/><use x="232.7" xlink:href="#Symbol17" y="17.2"/><use x="233.6" xlink:href="#Symbol17" y="17.5"/><use x="234.6" xlink:href="#Symbol17" y="17.5"/><use x="235.6" xlink:href="#Symbol17" y="17.5"/><use x="236.6" xlink:href="#Symbol17" y="17.6"/><use x="237.2" xlink:href="#Symbol17" y="18.3"/><use x="238.1" xlink:href="#Symbol17" y="18.6"/></g><symbol id="Symbol18"><path d=" M-0.00,-0.00 L3.00,-0.00 L3.00,3.00 L-0.00,3.00 z" fill="rgb(0,0,0)" fill-opacity="1.000" stroke-linecap="round" stroke-width="0"/></symbol><g nch:brush-type="8" nch:grouptype="stamp" nch:path="16.6,125.3,16.6,125.3,16.7,127.1 16.6,127.6,16.5,128.1,16.3,128.0 16.1,128.3,15.9,128.5,15.6,128.8 15.4,129.0,15.3,129.2,15.3,129.3 15.2,129.4,15.1,129.5,14.9,129.6 14.7,129.6,14.6,129.7,14.4,129.8 14.3,129.9,14.1,130.0,14.0,130.2 13.8,130.3,13.7,130.4,13.5,130.4 13.4,130.6,13.3,130.7,13.2,130.9 13.1,131.0,13.1,131.2,13.0,131.4 12.9,131.5,12.8,131.6,12.5,131.5 12.5,131.7,12.4,131.9,12.5,132.4 12.5,132.6,12.4,132.9,12.3,133.0 12.2,133.3,12.2,133.7,12.3,134.4 12.2,134.7,12.2,135.0,12.0,134.7 12.0,135.1,12.0,135.6,12.0,136.7 12.0,137.2,12.0,137.7,11.8,137.6 11.8,137.9,11.7,138.2,11.8,138.6 11.8,138.8,11.7,139.0,11.6,138.6 11.5,139.3,11.5,139.9,11.3,142.0 11.5,142.7,11.7,143.4,12.4,143.2 12.7,143.4,13.0,143.5,13.0,143.5 13.1,143.6,13.3,143.7,13.4,143.8 13.6,143.8,13.8,143.9,14.3,143.8 14.5,143.8,14.7,143.9,14.7,144.2 15.0,144.3,15.2,144.5,15.6,144.6 15.9,144.8,16.2,144.9,16.1,145.0 16.6,145.0,17.1,145.0,18.4,144.9 18.9,145.0,19.3,145.1,18.4,145.4 19.3,145.5,20.3,145.5,23.8,145.4 24.6,145.5,25.4,145.5,24.5,145.6 23.9,145.7,23.3,145.7,21.5,145.7 20.9,145.7,20.9,145.7,20.7,145.7 20.7,145.7," nch:path-opacity="255" nch:stamp="marker" nch:stampwidth="3.000000" stroke="rgb(0,0,0)" stroke-width="0"><use x="15.1" xlink:href="#Symbol18" y="123.8"/><use x="15.1" xlink:href="#Symbol18" y="124.8"/><use x="15.1" xlink:href="#Symbol18" y="125.8"/><use x="14.7" xlink:href="#Symbol18" y="126.7"/><use x="14.0" xlink:href="#Symbol18" y="127.3"/><use x="13.4" xlink:href="#Symbol18" y="128.1"/><use x="12.6" xlink:href="#Symbol18" y="128.6"/><use x="11.8" xlink:href="#Symbol18" y="129.2"/><use x="11.2" xlink:href="#Symbol18" y="130.1"/><use x="11.0" xlink:href="#Symbol18" y="131.0"/><use x="10.7" xlink:href="#Symbol18" y="132.0"/><use x="10.7" xlink:href="#Symbol18" y="132.9"/><use x="10.5" xlink:href="#Symbol18" y="133.9"/><use x="10.5" xlink:href="#Symbol18" y="134.9"/><use x="10.5" xlink:href="#Symbol18" y="135.9"/><use x="10.3" xlink:href="#Symbol18" y="136.8"/><use x="10.0" xlink:href="#Symbol18" y="137.8"/><use x="10.0" xlink:href="#Symbol18" y="138.8"/><use x="9.9" xlink:href="#Symbol18" y="139.8"/><use x="10.0" xlink:href="#Symbol18" y="140.8"/><use x="10.4" xlink:href="#Symbol18" y="141.7"/><use x="11.3" xlink:href="#Symbol18" y="142.0"/><use x="12.2" xlink:href="#Symbol18" y="142.4"/><use x="13.2" xlink:href="#Symbol18" y="142.4"/><use x="13.9" xlink:href="#Symbol18" y="143.0"/><use x="14.8" xlink:href="#Symbol18" y="143.5"/><use x="15.8" xlink:href="#Symbol18" y="143.5"/><use x="16.8" xlink:href="#Symbol18" y="143.5"/><use x="17.7" xlink:href="#Symbol18" y="143.9"/><use x="18.7" xlink:href="#Symbol18" y="144.0"/><use x="19.7" xlink:href="#Symbol18" y="144.0"/><use x="20.7" xlink:href="#Symbol18" y="144.0"/><use x="21.7" xlink:href="#Symbol18" y="143.9"/><use x="22.7" xlink:href="#Symbol18" y="143.9"/><use x="21.8" xlink:href="#Symbol18" y="144.2"/><use x="20.8" xlink:href="#Symbol18" y="144.2"/><use x="19.8" xlink:href="#Symbol18" y="144.2"/></g><symbol id="Symbol19"><path d=" M-0.00,-0.00 L3.00,-0.00 L3.00,3.00 L-0.00,3.00 z" fill="rgb(0,0,0)" fill-opacity="1.000" stroke-linecap="round" stroke-width="0"/></symbol><g nch:brush-type="8" nch:grouptype="stamp" nch:path="16.4,127.4,16.4,127.4,16.4,127.8 16.4,128.0,16.3,128.3,16.3,128.5 16.1,128.7,16.0,129.0,15.6,129.2 15.4,129.4,15.3,129.6,15.3,129.7 15.2,129.9,15.1,130.1,14.9,130.4 14.7,130.6,14.6,130.7,14.4,130.7 14.3,130.8,14.1,130.9,14.0,131.0 13.8,131.3,13.6,131.5,13.3,132.1 13.1,132.4,13.0,132.7,13.1,132.7 12.9,132.9,12.8,133.0,12.4,133.3 12.2,133.5,12.1,133.8,12.1,134.0 12.0,134.2,11.9,134.4,11.8,134.5 11.8,134.7,11.7,134.8,11.6,134.9 11.5,135.1,11.5,135.4,11.4,135.8 11.3,136.1,11.2,136.3,11.2,136.4 11.1,136.5,11.0,136.6,10.7,136.6 10.6,136.7,10.5,136.9,10.7,137.2 10.6,137.4,10.6,137.7,10.5,137.9 10.4,138.1,10.3,138.3,10.2,138.4 10.2,138.6,10.1,138.8,10.1,139.0 9.9,139.3,9.8,139.6,9.6,140.2 9.5,140.4,9.4,140.6,9.3,140.5 9.3,140.6,9.3,140.6,9.3,141.1 9.3,141.1," nch:path-opacity="255" nch:stamp="marker" nch:stampwidth="3.000000" stroke="rgb(0,0,0)" stroke-width="0"><use x="14.9" xlink:href="#Symbol19" y="125.9"/><use x="14.8" xlink:href="#Symbol19" y="126.8"/><use x="14.2" xlink:href="#Symbol19" y="127.6"/><use x="13.7" xlink:href="#Symbol19" y="128.4"/><use x="13.1" xlink:href="#Symbol19" y="129.2"/><use x="12.3" xlink:href="#Symbol19" y="129.8"/><use x="11.8" xlink:href="#Symbol19" y="130.6"/><use x="11.3" xlink:href="#Symbol19" y="131.5"/><use x="10.7" xlink:href="#Symbol19" y="132.2"/><use x="10.3" xlink:href="#Symbol19" y="133.1"/><use x="10.0" xlink:href="#Symbol19" y="134.0"/><use x="9.7" xlink:href="#Symbol19" y="134.9"/><use x="9.1" xlink:href="#Symbol19" y="135.7"/><use x="8.9" xlink:href="#Symbol19" y="136.7"/><use x="8.5" xlink:href="#Symbol19" y="137.6"/><use x="8.1" xlink:href="#Symbol19" y="138.5"/><use x="7.8" xlink:href="#Symbol19" y="139.4"/></g></g></svg>