<?xml version="1.0"?>
<svg width="960" height="960" xmlns="http://www.w3.org/2000/svg" xmlns:svg="http://www.w3.org/2000/svg" xmlns:xlink="http://www.w3.org/1999/xlink" transform="translate(0.5,0.5)" version="1.1">
 <g class="layer">
  <title>Layer 1</title>
  <g class="Layer" id="svg_1" transform="matrix(3.25235, 0, 0, 3.4553, 1.12083, -31.6232)">
   <line id="svg_2" stroke="rgb(0,0,0)" stroke-width="8" x1="150.52" x2="36.35" y1="211.1" y2="210.66"/>
   <line id="svg_3" stroke="rgb(0,0,0)" stroke-width="8" x1="163.16" x2="197.58" y1="210.66" y2="210.22"/>
   <line id="svg_4" stroke="rgb(0,0,0)" stroke-width="8" x1="228.52" x2="249" y1="154.45" y2="213.27"/>
   <line id="svg_5" stroke="rgb(0,0,0)" stroke-width="8" x1="268.17" x2="247.25" y1="210.22" y2="211.1"/>
   <line id="svg_6" stroke="rgb(0,0,0)" stroke-width="8" x1="260.33" x2="267.3" y1="187.57" y2="210.66"/>
   <line id="svg_7" stroke="rgb(0,0,0)" stroke-width="8" x1="255.1" x2="238.54" y1="175.37" y2="127.44"/>
   <line id="svg_8" stroke="rgb(0,0,0)" stroke-width="8" x1="205.42" x2="252.48" y1="204.56" y2="98.24"/>
   <line id="svg_9" stroke="rgb(0,0,0)" stroke-width="8" x1="242.46" x2="116.53" y1="79.51" y2="79.07"/>
   <line id="svg_10" stroke="rgb(0,0,0)" stroke-width="8" x1="102.59" x2="79.49" y1="79.07" y2="79.07"/>
   <line id="svg_11" stroke="rgb(0,0,0)" stroke-width="8" x1="73.39" x2="27.2" y1="85.61" y2="189.75"/>
   <line id="svg_12" stroke="rgb(0,0,0)" stroke-width="8" x1="87.34" x2="238.1" y1="94.76" y2="95.63"/>
   <line id="svg_13" stroke="rgb(0,0,0)" stroke-width="8" x1="191.91" x2="236.8" y1="194.54" y2="94.32"/>
   <line id="svg_14" stroke="rgb(0,0,0)" stroke-width="8" x1="187.12" x2="142.24" y1="96.06" y2="194.97"/>
   <line id="svg_15" stroke="rgb(0,0,0)" stroke-width="8" x1="91.69" x2="136.14" y1="195.41" y2="96.5"/>
   <line id="svg_16" stroke="rgb(0,0,0)" stroke-width="8" x1="86.03" x2="42.89" y1="95.63" y2="193.23"/>
   <line id="svg_17" stroke="rgb(0,0,0)" stroke-width="8" x1="205.86" x2="59.88" y1="162.29" y2="161.42"/>
   <line id="svg_18" stroke="rgb(0,0,0)" stroke-width="8" x1="218.49" x2="71.65" y1="129.18" y2="128.74"/>
   <line id="svg_19" stroke="rgb(0,0,0)" stroke-width="8" x1="194.09" x2="41.58" y1="194.97" y2="194.97"/>
   <symbol id="Symbol0">
    <path d="m0,0l6,0l0,6l-6,0l0,-6z" fill="rgb(0,0,0)" id="svg_20" stroke-linecap="round" stroke-width="0"/>
   </symbol>
   <g id="svg_21" stroke="rgb(0,0,0)" stroke-width="0">
    <use id="svg_22" x="190.84" xlink:href="#Symbol0" y="207.6"/>
    <use id="svg_23" x="191.84" xlink:href="#Symbol0" y="207.5"/>
    <use id="svg_24" x="192.84" xlink:href="#Symbol0" y="207.5"/>
    <use id="svg_25" x="193.84" xlink:href="#Symbol0" y="207.3"/>
    <use id="svg_26" x="194.84" xlink:href="#Symbol0" y="207.1"/>
    <use id="svg_27" x="195.74" xlink:href="#Symbol0" y="206.9"/>
    <use id="svg_28" x="196.64" xlink:href="#Symbol0" y="206.6"/>
    <use id="svg_29" x="197.54" xlink:href="#Symbol0" y="206.2"/>
    <use id="svg_30" x="198.44" xlink:href="#Symbol0" y="205.7"/>
    <use id="svg_31" x="199.24" xlink:href="#Symbol0" y="205.2"/>
    <use id="svg_32" x="199.94" xlink:href="#Symbol0" y="204.6"/>
    <use id="svg_33" x="200.74" xlink:href="#Symbol0" y="203.9"/>
    <use id="svg_34" x="201.34" xlink:href="#Symbol0" y="203.2"/>
    <use id="svg_35" x="201.94" xlink:href="#Symbol0" y="202.5"/>
    <use id="svg_36" x="202.54" xlink:href="#Symbol0" y="201.7"/>
    <use id="svg_37" x="202.94" xlink:href="#Symbol0" y="200.8"/>
    <use id="svg_38" x="203.34" xlink:href="#Symbol0" y="200"/>
    <use id="svg_39" x="203.74" xlink:href="#Symbol0" y="199.1"/>
   </g>
   <symbol id="Symbol1">
    <path d="m0,0l6,0l0,6l-6,0l0,-6z" fill="rgb(0,0,0)" id="svg_40" stroke-linecap="round" stroke-width="0"/>
   </symbol>
   <g id="svg_41" stroke="rgb(0,0,0)" stroke-width="0">
    <use id="svg_42" x="80.44" xlink:href="#Symbol1" y="75.9"/>
    <use id="svg_43" x="79.44" xlink:href="#Symbol1" y="76"/>
    <use id="svg_44" x="78.44" xlink:href="#Symbol1" y="76.2"/>
    <use id="svg_45" x="77.54" xlink:href="#Symbol1" y="76.5"/>
    <use id="svg_46" x="76.54" xlink:href="#Symbol1" y="76.8"/>
    <use id="svg_47" x="75.64" xlink:href="#Symbol1" y="77.1"/>
    <use id="svg_48" x="74.74" xlink:href="#Symbol1" y="77.5"/>
    <use id="svg_49" x="73.94" xlink:href="#Symbol1" y="78"/>
    <use id="svg_50" x="73.14" xlink:href="#Symbol1" y="78.6"/>
    <use id="svg_51" x="72.34" xlink:href="#Symbol1" y="79.2"/>
    <use id="svg_52" x="71.74" xlink:href="#Symbol1" y="79.8"/>
    <use id="svg_53" x="71.04" xlink:href="#Symbol1" y="80.6"/>
    <use id="svg_54" x="70.44" xlink:href="#Symbol1" y="81.3"/>
    <use id="svg_55" x="69.94" xlink:href="#Symbol1" y="82.2"/>
    <use id="svg_56" x="69.44" xlink:href="#Symbol1" y="83"/>
    <use id="svg_57" x="69.14" xlink:href="#Symbol1" y="83.9"/>
    <use id="svg_58" x="68.74" xlink:href="#Symbol1" y="84.8"/>
    <use id="svg_59" x="68.54" xlink:href="#Symbol1" y="85.7"/>
   </g>
   <symbol id="Symbol2">
    <path d="m0,0l6,0l0,6l-6,0l0,-6z" fill="rgb(0,0,0)" id="svg_60" stroke-linecap="round" stroke-width="0"/>
   </symbol>
   <g id="svg_61" stroke="rgb(0,0,0)" stroke-width="0">
    <use id="svg_62" x="34.84" xlink:href="#Symbol2" y="207.5"/>
    <use id="svg_63" x="33.94" xlink:href="#Symbol2" y="207.8"/>
    <use id="svg_64" x="32.94" xlink:href="#Symbol2" y="208"/>
    <use id="svg_65" x="31.94" xlink:href="#Symbol2" y="208.2"/>
    <use id="svg_66" x="30.84" xlink:href="#Symbol2" y="208.3"/>
    <use id="svg_67" x="29.84" xlink:href="#Symbol2" y="208.5"/>
    <use id="svg_68" x="28.84" xlink:href="#Symbol2" y="208.5"/>
    <use id="svg_69" x="27.74" xlink:href="#Symbol2" y="208.6"/>
    <use id="svg_70" x="26.74" xlink:href="#Symbol2" y="208.6"/>
    <use id="svg_71" x="25.64" xlink:href="#Symbol2" y="208.6"/>
    <use id="svg_72" x="24.64" xlink:href="#Symbol2" y="208.5"/>
    <use id="svg_73" x="23.64" xlink:href="#Symbol2" y="208.4"/>
    <use id="svg_74" x="22.64" xlink:href="#Symbol2" y="208.2"/>
    <use id="svg_75" x="21.74" xlink:href="#Symbol2" y="207.9"/>
    <use id="svg_76" x="20.84" xlink:href="#Symbol2" y="207.5"/>
    <use id="svg_77" x="20.04" xlink:href="#Symbol2" y="207"/>
    <use id="svg_78" x="19.34" xlink:href="#Symbol2" y="206.4"/>
    <use id="svg_79" x="18.64" xlink:href="#Symbol2" y="205.7"/>
    <use id="svg_80" x="18.14" xlink:href="#Symbol2" y="204.8"/>
    <use id="svg_81" x="17.84" xlink:href="#Symbol2" y="203.9"/>
    <use id="svg_82" x="17.64" xlink:href="#Symbol2" y="202.8"/>
    <use id="svg_83" x="17.54" xlink:href="#Symbol2" y="201.8"/>
    <use id="svg_84" x="17.64" xlink:href="#Symbol2" y="200.8"/>
    <use id="svg_85" x="17.74" xlink:href="#Symbol2" y="199.7"/>
    <use id="svg_86" x="17.94" xlink:href="#Symbol2" y="198.7"/>
    <use id="svg_87" x="18.24" xlink:href="#Symbol2" y="197.7"/>
    <use id="svg_88" x="18.54" xlink:href="#Symbol2" y="196.7"/>
    <use id="svg_89" x="18.94" xlink:href="#Symbol2" y="195.7"/>
    <use id="svg_90" x="19.34" xlink:href="#Symbol2" y="194.8"/>
    <use id="svg_91" x="19.74" xlink:href="#Symbol2" y="193.8"/>
    <use id="svg_92" x="20.24" xlink:href="#Symbol2" y="192.9"/>
    <use id="svg_93" x="20.64" xlink:href="#Symbol2" y="192"/>
    <use id="svg_94" x="21.14" xlink:href="#Symbol2" y="191.1"/>
    <use id="svg_95" x="21.64" xlink:href="#Symbol2" y="190.2"/>
    <use id="svg_96" x="22.14" xlink:href="#Symbol2" y="189.3"/>
    <use id="svg_97" x="22.74" xlink:href="#Symbol2" y="188.4"/>
    <use id="svg_98" x="23.24" xlink:href="#Symbol2" y="187.5"/>
    <use id="svg_99" x="23.74" xlink:href="#Symbol2" y="186.7"/>
   </g>
   <symbol id="Symbol3">
    <path d="m0,0l6,0l0,6l-6,0l0,-6z" fill="rgb(0,0,0)" id="svg_100" stroke-linecap="round" stroke-width="0"/>
   </symbol>
   <g id="svg_101" stroke="rgb(0,0,0)" stroke-width="0">
    <use id="svg_102" x="239.64" xlink:href="#Symbol3" y="76.3"/>
    <use id="svg_103" x="240.54" xlink:href="#Symbol3" y="76.2"/>
    <use id="svg_104" x="241.64" xlink:href="#Symbol3" y="76.2"/>
    <use id="svg_105" x="242.64" xlink:href="#Symbol3" y="76.2"/>
    <use id="svg_106" x="243.64" xlink:href="#Symbol3" y="76.3"/>
    <use id="svg_107" x="244.74" xlink:href="#Symbol3" y="76.3"/>
    <use id="svg_108" x="245.74" xlink:href="#Symbol3" y="76.4"/>
    <use id="svg_109" x="246.84" xlink:href="#Symbol3" y="76.6"/>
    <use id="svg_110" x="247.84" xlink:href="#Symbol3" y="76.7"/>
    <use id="svg_111" x="248.84" xlink:href="#Symbol3" y="77"/>
    <use id="svg_112" x="249.84" xlink:href="#Symbol3" y="77.2"/>
    <use id="svg_113" x="250.74" xlink:href="#Symbol3" y="77.6"/>
    <use id="svg_114" x="251.74" xlink:href="#Symbol3" y="78"/>
    <use id="svg_115" x="252.54" xlink:href="#Symbol3" y="78.4"/>
    <use id="svg_116" x="253.34" xlink:href="#Symbol3" y="79"/>
    <use id="svg_117" x="254.04" xlink:href="#Symbol3" y="79.6"/>
    <use id="svg_118" x="254.64" xlink:href="#Symbol3" y="80.3"/>
    <use id="svg_119" x="255.14" xlink:href="#Symbol3" y="81.2"/>
    <use id="svg_120" x="255.44" xlink:href="#Symbol3" y="82.1"/>
    <use id="svg_121" x="255.64" xlink:href="#Symbol3" y="83.1"/>
    <use id="svg_122" x="255.64" xlink:href="#Symbol3" y="84.2"/>
    <use id="svg_123" x="255.54" xlink:href="#Symbol3" y="85.2"/>
    <use id="svg_124" x="255.24" xlink:href="#Symbol3" y="86.2"/>
    <use id="svg_125" x="254.94" xlink:href="#Symbol3" y="87.2"/>
    <use id="svg_126" x="254.54" xlink:href="#Symbol3" y="88.1"/>
    <use id="svg_127" x="254.04" xlink:href="#Symbol3" y="89.1"/>
    <use id="svg_128" x="253.54" xlink:href="#Symbol3" y="90"/>
    <use id="svg_129" x="252.94" xlink:href="#Symbol3" y="90.9"/>
    <use id="svg_130" x="252.44" xlink:href="#Symbol3" y="91.8"/>
    <use id="svg_131" x="251.84" xlink:href="#Symbol3" y="92.6"/>
    <use id="svg_132" x="251.24" xlink:href="#Symbol3" y="93.4"/>
    <use id="svg_133" x="250.54" xlink:href="#Symbol3" y="94.2"/>
    <use id="svg_134" x="249.94" xlink:href="#Symbol3" y="95"/>
    <use id="svg_135" x="249.24" xlink:href="#Symbol3" y="95.8"/>
    <use id="svg_136" x="248.54" xlink:href="#Symbol3" y="96.6"/>
    <use id="svg_137" x="247.94" xlink:href="#Symbol3" y="97.4"/>
    <use id="svg_138" x="247.24" xlink:href="#Symbol3" y="98.1"/>
    <use id="svg_139" x="246.54" xlink:href="#Symbol3" y="98.8"/>
   </g>
   <symbol id="Symbol4">
    <path d="m0,0l3,0l0,3l-3,0l0,-3z" fill="rgb(0,0,0)" id="svg_140" stroke-linecap="round" stroke-width="0"/>
   </symbol>
   <g id="svg_141" stroke="rgb(0,0,0)" stroke-width="0">
    <use id="svg_142" x="268.14" xlink:href="#Symbol4" y="208"/>
    <use id="svg_143" x="267.94" xlink:href="#Symbol4" y="208.9"/>
    <use id="svg_144" x="267.24" xlink:href="#Symbol4" y="209.5"/>
    <use id="svg_145" x="266.74" xlink:href="#Symbol4" y="210.4"/>
    <use id="svg_146" x="266.34" xlink:href="#Symbol4" y="211.3"/>
    <use id="svg_147" x="266.54" xlink:href="#Symbol4" y="210.3"/>
    <use id="svg_148" x="267.14" xlink:href="#Symbol4" y="209.5"/>
   </g>
   <symbol id="Symbol5">
    <path d="m0,0l3,0l0,3l-3,0l0,-3z" fill="rgb(0,0,0)" id="svg_149" stroke-linecap="round" stroke-width="0"/>
   </symbol>
   <g id="svg_150" stroke="rgb(0,0,0)" stroke-width="0">
    <use id="svg_151" x="246.14" xlink:href="#Symbol5" y="211.4"/>
    <use id="svg_152" x="245.54" xlink:href="#Symbol5" y="212.1"/>
   </g>
   <symbol id="Symbol6">
    <path d="m0,0l3,0l0,3l-3,0l0,-3z" fill="rgb(0,0,0)" id="svg_153" stroke-linecap="round" stroke-width="0"/>
   </symbol>
   <g id="svg_154" stroke="rgb(0,0,0)" stroke-width="0">
    <use id="svg_155" x="251.64" xlink:href="#Symbol6" y="174.1"/>
    <use id="svg_156" x="252.64" xlink:href="#Symbol6" y="174.1"/>
    <use id="svg_157" x="253.64" xlink:href="#Symbol6" y="174.1"/>
    <use id="svg_158" x="254.54" xlink:href="#Symbol6" y="174.1"/>
   </g>
   <symbol id="Symbol7">
    <path d="m0,0l3,0l0,3l-3,0l0,-3z" fill="rgb(0,0,0)" id="svg_159" stroke-linecap="round" stroke-width="0"/>
   </symbol>
   <g id="svg_160" stroke="rgb(0,0,0)" stroke-width="0">
    <use id="svg_161" x="256.94" xlink:href="#Symbol7" y="188"/>
    <use id="svg_162" x="257.64" xlink:href="#Symbol7" y="187.4"/>
    <use id="svg_163" x="258.64" xlink:href="#Symbol7" y="187.4"/>
    <use id="svg_164" x="259.54" xlink:href="#Symbol7" y="187"/>
    <use id="svg_165" x="260.44" xlink:href="#Symbol7" y="186.7"/>
    <use id="svg_166" x="261.44" xlink:href="#Symbol7" y="186.7"/>
   </g>
   <symbol id="Symbol8">
    <path d="m0,0l3,0l0,3l-3,0l0,-3z" fill="rgb(0,0,0)" id="svg_167" stroke-linecap="round" stroke-width="0"/>
   </symbol>
   <g id="svg_168" stroke="rgb(0,0,0)" stroke-width="0">
    <use id="svg_169" x="162.74" xlink:href="#Symbol8" y="206.8"/>
    <use id="svg_170" x="162.44" xlink:href="#Symbol8" y="207.7"/>
    <use id="svg_171" x="162.34" xlink:href="#Symbol8" y="208.7"/>
    <use id="svg_172" x="162.04" xlink:href="#Symbol8" y="209.7"/>
    <use id="svg_173" x="161.84" xlink:href="#Symbol8" y="210.6"/>
    <use id="svg_174" x="161.84" xlink:href="#Symbol8" y="211.6"/>
   </g>
   <symbol id="Symbol9">
    <path d="m0,0l3,0l0,3l-3,0l0,-3z" fill="rgb(0,0,0)" id="svg_175" stroke-linecap="round" stroke-width="0"/>
   </symbol>
   <g id="svg_176" stroke="rgb(0,0,0)" stroke-width="0">
    <use id="svg_177" x="147.94" xlink:href="#Symbol9" y="207.1"/>
    <use id="svg_178" x="147.94" xlink:href="#Symbol9" y="208"/>
    <use id="svg_179" x="148.34" xlink:href="#Symbol9" y="208.9"/>
    <use id="svg_180" x="148.34" xlink:href="#Symbol9" y="209.9"/>
    <use id="svg_181" x="148.64" xlink:href="#Symbol9" y="210.8"/>
    <use id="svg_182" x="148.64" xlink:href="#Symbol9" y="211.8"/>
   </g>
   <symbol id="Symbol10">
    <path d="m0,0l3,0l0,3l-3,0l0,-3z" fill="rgb(0,0,0)" id="svg_183" stroke-linecap="round" stroke-width="0"/>
   </symbol>
   <g id="svg_184" stroke="rgb(0,0,0)" stroke-width="0">
    <use id="svg_185" x="82.44" xlink:href="#Symbol10" y="94.8"/>
    <use id="svg_186" x="82.84" xlink:href="#Symbol10" y="94"/>
    <use id="svg_187" x="83.04" xlink:href="#Symbol10" y="93"/>
    <use id="svg_188" x="83.74" xlink:href="#Symbol10" y="92.3"/>
    <use id="svg_189" x="84.74" xlink:href="#Symbol10" y="92.1"/>
    <use id="svg_190" x="85.64" xlink:href="#Symbol10" y="91.8"/>
    <use id="svg_191" x="86.24" xlink:href="#Symbol10" y="91"/>
    <use id="svg_192" x="85.34" xlink:href="#Symbol10" y="90.7"/>
    <use id="svg_193" x="84.94" xlink:href="#Symbol10" y="91.6"/>
    <use id="svg_194" x="84.34" xlink:href="#Symbol10" y="92.3"/>
    <use id="svg_195" x="84.24" xlink:href="#Symbol10" y="93.3"/>
    <use id="svg_196" x="84.24" xlink:href="#Symbol10" y="94.3"/>
    <use id="svg_197" x="84.74" xlink:href="#Symbol10" y="95.1"/>
    <use id="svg_198" x="85.74" xlink:href="#Symbol10" y="95.1"/>
   </g>
   <symbol id="Symbol11">
    <path d="m0,0l3,0l0,3l-3,0l0,-3z" fill="rgb(0,0,0)" id="svg_199" stroke-linecap="round" stroke-width="0"/>
   </symbol>
   <g id="svg_200" stroke="rgb(0,0,0)" stroke-width="0">
    <use id="svg_201" x="235.84" xlink:href="#Symbol11" y="91.6"/>
    <use id="svg_202" x="236.34" xlink:href="#Symbol11" y="92.5"/>
    <use id="svg_203" x="236.44" xlink:href="#Symbol11" y="93.5"/>
    <use id="svg_204" x="236.54" xlink:href="#Symbol11" y="94.4"/>
    <use id="svg_205" x="236.54" xlink:href="#Symbol11" y="93.4"/>
    <use id="svg_206" x="236.04" xlink:href="#Symbol11" y="92.6"/>
    <use id="svg_207" x="236.74" xlink:href="#Symbol11" y="93.2"/>
   </g>
   <symbol id="Symbol12">
    <path d="m0,0l3,0l0,3l-3,0l0,-3z" fill="rgb(0,0,0)" id="svg_208" stroke-linecap="round" stroke-width="0"/>
   </symbol>
   <g id="svg_209" stroke="rgb(0,0,0)" stroke-width="0">
    <use id="svg_210" x="39.34" xlink:href="#Symbol12" y="190.8"/>
    <use id="svg_211" x="39.54" xlink:href="#Symbol12" y="191.8"/>
    <use id="svg_212" x="39.74" xlink:href="#Symbol12" y="192.7"/>
    <use id="svg_213" x="40.34" xlink:href="#Symbol12" y="193.5"/>
    <use id="svg_214" x="40.64" xlink:href="#Symbol12" y="194.4"/>
    <use id="svg_215" x="41.24" xlink:href="#Symbol12" y="195.2"/>
    <use id="svg_216" x="41.84" xlink:href="#Symbol12" y="195.9"/>
    <use id="svg_217" x="42.84" xlink:href="#Symbol12" y="196.1"/>
   </g>
   <symbol id="Symbol13">
    <path d="m0,0l3,0l0,3l-3,0l0,-3z" fill="rgb(0,0,0)" id="svg_218" stroke-linecap="round" stroke-width="0"/>
   </symbol>
   <g id="svg_219" stroke="rgb(0,0,0)" stroke-width="0">
    <use id="svg_220" x="191.44" xlink:href="#Symbol13" y="195.6"/>
    <use id="svg_221" x="191.34" xlink:href="#Symbol13" y="194.6"/>
    <use id="svg_222" x="191.44" xlink:href="#Symbol13" y="193.6"/>
    <use id="svg_223" x="192.34" xlink:href="#Symbol13" y="193.3"/>
    <use id="svg_224" x="191.44" xlink:href="#Symbol13" y="193.7"/>
    <use id="svg_225" x="191.84" xlink:href="#Symbol13" y="194.5"/>
   </g>
   <symbol id="Symbol14">
    <path d="m0,0l3,0l0,3l-3,0l0,-3z" fill="rgb(0,0,0)" id="svg_226" stroke-linecap="round" stroke-width="0"/>
   </symbol>
   <g id="svg_227" stroke="rgb(0,0,0)" stroke-width="0">
    <use id="svg_228" x="192.54" xlink:href="#Symbol14" y="193.1"/>
    <use id="svg_229" x="192.54" xlink:href="#Symbol14" y="194"/>
    <use id="svg_230" x="191.74" xlink:href="#Symbol14" y="194.6"/>
    <use id="svg_231" x="191.04" xlink:href="#Symbol14" y="195.3"/>
   </g>
   <symbol id="Symbol15">
    <path d="m0,0l3,0l0,3l-3,0l0,-3z" fill="rgb(0,0,0)" id="svg_232" stroke-linecap="round" stroke-width="0"/>
   </symbol>
   <g id="svg_233" stroke="rgb(0,0,0)" stroke-width="0">
    <use id="svg_234" x="249.34" xlink:href="#Symbol15" y="79.9"/>
    <use id="svg_235" x="250.34" xlink:href="#Symbol15" y="80.1"/>
    <use id="svg_236" x="251.14" xlink:href="#Symbol15" y="80.5"/>
    <use id="svg_237" x="252.04" xlink:href="#Symbol15" y="81"/>
    <use id="svg_238" x="252.94" xlink:href="#Symbol15" y="81.5"/>
    <use id="svg_239" x="253.44" xlink:href="#Symbol15" y="82.3"/>
    <use id="svg_240" x="254.14" xlink:href="#Symbol15" y="82.9"/>
    <use id="svg_241" x="254.74" xlink:href="#Symbol15" y="83.7"/>
    <use id="svg_242" x="255.34" xlink:href="#Symbol15" y="84.5"/>
    <use id="svg_243" x="255.84" xlink:href="#Symbol15" y="85.3"/>
    <use id="svg_244" x="256.04" xlink:href="#Symbol15" y="86.3"/>
   </g>
   <symbol id="Symbol16">
    <path d="m0,0l3,0l0,3l-3,0l0,-3z" fill="rgb(0,0,0)" id="svg_245" stroke-linecap="round" stroke-width="0"/>
   </symbol>
   <g id="svg_246" stroke="rgb(0,0,0)" stroke-width="0">
    <use id="svg_247" x="252.54" xlink:href="#Symbol16" y="80.9"/>
    <use id="svg_248" x="252.54" xlink:href="#Symbol16" y="81.8"/>
    <use id="svg_249" x="253.04" xlink:href="#Symbol16" y="82.7"/>
    <use id="svg_250" x="253.04" xlink:href="#Symbol16" y="83.7"/>
    <use id="svg_251" x="253.04" xlink:href="#Symbol16" y="84.6"/>
    <use id="svg_252" x="253.24" xlink:href="#Symbol16" y="85.6"/>
    <use id="svg_253" x="253.34" xlink:href="#Symbol16" y="86.6"/>
    <use id="svg_254" x="253.34" xlink:href="#Symbol16" y="87.5"/>
    <use id="svg_255" x="253.34" xlink:href="#Symbol16" y="88.5"/>
    <use id="svg_256" x="253.34" xlink:href="#Symbol16" y="89.5"/>
    <use id="svg_257" x="253.24" xlink:href="#Symbol16" y="90.5"/>
    <use id="svg_258" x="252.84" xlink:href="#Symbol16" y="91.4"/>
    <use id="svg_259" x="252.44" xlink:href="#Symbol16" y="92.2"/>
    <use id="svg_260" x="251.54" xlink:href="#Symbol16" y="92.7"/>
   </g>
   <symbol id="Symbol17">
    <path d="m0,0l3,0l0,3l-3,0l0,-3z" fill="rgb(0,0,0)" id="svg_261" stroke-linecap="round" stroke-width="0"/>
   </symbol>
   <g id="svg_262" stroke="rgb(0,0,0)" stroke-width="0">
    <use id="svg_263" x="241.84" xlink:href="#Symbol17" y="79.9"/>
    <use id="svg_264" x="242.84" xlink:href="#Symbol17" y="79.9"/>
    <use id="svg_265" x="243.84" xlink:href="#Symbol17" y="79.9"/>
    <use id="svg_266" x="244.84" xlink:href="#Symbol17" y="80"/>
    <use id="svg_267" x="245.74" xlink:href="#Symbol17" y="80.3"/>
    <use id="svg_268" x="246.64" xlink:href="#Symbol17" y="80.6"/>
    <use id="svg_269" x="247.64" xlink:href="#Symbol17" y="80.6"/>
    <use id="svg_270" x="248.64" xlink:href="#Symbol17" y="80.6"/>
    <use id="svg_271" x="249.64" xlink:href="#Symbol17" y="80.7"/>
    <use id="svg_272" x="250.24" xlink:href="#Symbol17" y="81.4"/>
    <use id="svg_273" x="251.14" xlink:href="#Symbol17" y="81.7"/>
   </g>
   <symbol id="Symbol18">
    <path d="m0,0l3,0l0,3l-3,0l0,-3z" fill="rgb(0,0,0)" id="svg_274" stroke-linecap="round" stroke-width="0"/>
   </symbol>
   <g id="svg_275" stroke="rgb(0,0,0)" stroke-width="0">
    <use id="svg_276" x="28.14" xlink:href="#Symbol18" y="186.9"/>
    <use id="svg_277" x="28.14" xlink:href="#Symbol18" y="187.9"/>
    <use id="svg_278" x="28.14" xlink:href="#Symbol18" y="188.9"/>
    <use id="svg_279" x="27.74" xlink:href="#Symbol18" y="189.8"/>
    <use id="svg_280" x="27.04" xlink:href="#Symbol18" y="190.4"/>
    <use id="svg_281" x="26.44" xlink:href="#Symbol18" y="191.2"/>
    <use id="svg_282" x="25.64" xlink:href="#Symbol18" y="191.7"/>
    <use id="svg_283" x="24.84" xlink:href="#Symbol18" y="192.3"/>
    <use id="svg_284" x="24.24" xlink:href="#Symbol18" y="193.2"/>
    <use id="svg_285" x="24.04" xlink:href="#Symbol18" y="194.1"/>
    <use id="svg_286" x="23.74" xlink:href="#Symbol18" y="195.1"/>
    <use id="svg_287" x="23.74" xlink:href="#Symbol18" y="196"/>
    <use id="svg_288" x="23.54" xlink:href="#Symbol18" y="197"/>
    <use id="svg_289" x="23.54" xlink:href="#Symbol18" y="198"/>
    <use id="svg_290" x="23.54" xlink:href="#Symbol18" y="199"/>
    <use id="svg_291" x="23.34" xlink:href="#Symbol18" y="199.9"/>
    <use id="svg_292" x="23.04" xlink:href="#Symbol18" y="200.9"/>
    <use id="svg_293" x="23.04" xlink:href="#Symbol18" y="201.9"/>
    <use id="svg_294" x="22.94" xlink:href="#Symbol18" y="202.9"/>
    <use id="svg_295" x="23.04" xlink:href="#Symbol18" y="203.9"/>
    <use id="svg_296" x="23.44" xlink:href="#Symbol18" y="204.8"/>
    <use id="svg_297" x="24.34" xlink:href="#Symbol18" y="205.1"/>
    <use id="svg_298" x="25.24" xlink:href="#Symbol18" y="205.5"/>
    <use id="svg_299" x="26.24" xlink:href="#Symbol18" y="205.5"/>
    <use id="svg_300" x="26.94" xlink:href="#Symbol18" y="206.1"/>
    <use id="svg_301" x="27.84" xlink:href="#Symbol18" y="206.6"/>
    <use id="svg_302" x="28.84" xlink:href="#Symbol18" y="206.6"/>
    <use id="svg_303" x="29.84" xlink:href="#Symbol18" y="206.6"/>
    <use id="svg_304" x="30.74" xlink:href="#Symbol18" y="207"/>
    <use id="svg_305" x="31.74" xlink:href="#Symbol18" y="207.1"/>
    <use id="svg_306" x="32.74" xlink:href="#Symbol18" y="207.1"/>
    <use id="svg_307" x="33.74" xlink:href="#Symbol18" y="207.1"/>
    <use id="svg_308" x="34.74" xlink:href="#Symbol18" y="207"/>
    <use id="svg_309" x="35.74" xlink:href="#Symbol18" y="207"/>
    <use id="svg_310" x="34.84" xlink:href="#Symbol18" y="207.3"/>
    <use id="svg_311" x="33.84" xlink:href="#Symbol18" y="207.3"/>
    <use id="svg_312" x="32.84" xlink:href="#Symbol18" y="207.3"/>
   </g>
   <symbol id="Symbol19">
    <path d="m0,0l3,0l0,3l-3,0l0,-3z" fill="rgb(0,0,0)" id="svg_313" stroke-linecap="round" stroke-width="0"/>
   </symbol>
   <g id="svg_314" stroke="rgb(0,0,0)" stroke-width="0">
    <use id="svg_315" transform="matrix(1.34095, 0, 0, 1.21711, 0, -33)" x="24.63" xlink:href="#Symbol19" y="177.75"/>
    <use id="svg_316" transform="matrix(1.34095, 0, 0, 1.21711, 0, -33)" x="24.53" xlink:href="#Symbol19" y="178.65"/>
    <use id="svg_317" transform="matrix(1.34095, 0, 0, 1.21711, 0, -33)" x="23.93" xlink:href="#Symbol19" y="179.45"/>
    <use id="svg_318" transform="matrix(1.34095, 0, 0, 1.21711, 0, -33)" x="23.43" xlink:href="#Symbol19" y="180.25"/>
    <use id="svg_319" transform="matrix(1.34095, 0, 0, 1.21711, 0, -33)" x="22.83" xlink:href="#Symbol19" y="181.05"/>
    <use id="svg_320" transform="matrix(1.34095, 0, 0, 1.21711, 0, -33)" x="22.03" xlink:href="#Symbol19" y="181.65"/>
    <use id="svg_321" transform="matrix(1.34095, 0, 0, 1.21711, 0, -33)" x="21.53" xlink:href="#Symbol19" y="182.45"/>
    <use id="svg_322" transform="matrix(1.34095, 0, 0, 1.21711, 0, -33)" x="21.03" xlink:href="#Symbol19" y="183.35"/>
    <use id="svg_323" transform="matrix(1.34095, 0, 0, 1.21711, 0, -33)" x="20.43" xlink:href="#Symbol19" y="184.05"/>
    <use id="svg_324" transform="matrix(1.34095, 0, 0, 1.21711, 0, -33)" x="20.03" xlink:href="#Symbol19" y="184.95"/>
    <use id="svg_325" transform="matrix(1.34095, 0, 0, 1.21711, 0, -33)" x="19.73" xlink:href="#Symbol19" y="185.85"/>
    <use id="svg_326" transform="matrix(1.34095, 0, 0, 1.21711, 0, -33)" x="19.43" xlink:href="#Symbol19" y="186.75"/>
    <use id="svg_327" transform="matrix(1.34095, 0, 0, 1.21711, 0, -33)" x="18.83" xlink:href="#Symbol19" y="187.55"/>
    <use id="svg_328" transform="matrix(1.34095, 0, 0, 1.21711, 0, -33)" x="18.63" xlink:href="#Symbol19" y="188.55"/>
    <use id="svg_329" transform="matrix(1.34095, 0, 0, 1.21711, 0, -33)" x="18.23" xlink:href="#Symbol19" y="189.45"/>
    <use id="svg_330" transform="matrix(1.34095, 0, 0, 1.21711, 0, -33)" x="17.83" xlink:href="#Symbol19" y="190.35"/>
    <use id="svg_331" transform="matrix(1.34095, 0, 0, 1.21711, 0, -33)" x="17.53" xlink:href="#Symbol19" y="191.25"/>
   </g>
  </g>
 </g>

</svg>