<?xml version="1.0" standalone="no"?>
<!DOCTYPE svg PUBLIC "-//W3C//DTD SVG 20010904//EN"
 "http://www.w3.org/TR/2001/REC-SVG-20010904/DTD/svg10.dtd">
<svg version="1.0" xmlns="http://www.w3.org/2000/svg"
 width="1024.000000pt" height="1024.000000pt" viewBox="0 0 1024.000000 1024.000000"
 preserveAspectRatio="xMidYMid meet">

<g transform="translate(0.000000,1024.000000) scale(0.100000,-0.100000)"
fill="#000000" stroke="none">
<path d="M3723 9332 c-63 -22 -115 -61 -154 -115 -50 -69 -59 -119 -59 -338
l0 -198 -527 -4 c-584 -4 -572 -2 -718 -72 -151 -72 -271 -192 -350 -347 -85
-170 -78 137 -79 -3243 -1 -2877 0 -3003 17 -3064 78 -275 278 -477 552 -558
56 -17 152 -18 1417 -21 l1357 -2 -58 81 c-32 45 -87 135 -122 200 l-64 118
-1217 1 c-1206 0 -1218 0 -1273 21 -122 45 -214 169 -222 297 -2 37 0 1390 4
3007 l8 2940 28 57 c35 71 109 139 185 170 l57 23 2150 0 c2088 0 2151 -1
2201 -19 72 -27 140 -79 175 -134 63 -99 59 21 59 -1893 l0 -1747 98 -22 c53
-12 138 -37 187 -56 50 -19 93 -34 98 -34 4 0 6 827 5 1838 l-3 1837 -32 93
c-42 126 -102 223 -193 312 -80 79 -151 126 -250 167 -122 49 -174 53 -695 53
l-483 0 -4 208 c-3 199 -4 209 -29 263 -36 76 -89 133 -157 166 l-57 28 -900
2 c-844 2 -903 1 -952 -15z"/>
<path d="M2693 7870 c-61 -37 -63 -47 -63 -380 l0 -300 2025 0 2025 0 0 318 0
318 -31 30 -30 29 -1947 3 c-1917 2 -1947 2 -1979 -18z"/>
<path d="M2630 6690 c0 -356 1 -364 64 -394 32 -15 193 -16 1980 -14 l1945 3
30 29 31 30 0 333 0 333 -2025 0 -2025 0 0 -320z"/>
<path d="M5995 5804 c-239 -47 -385 -227 -373 -459 3 -63 11 -95 31 -138 56
-114 157 -171 428 -242 254 -67 309 -103 309 -203 0 -56 -23 -94 -74 -124 -36
-20 -54 -23 -151 -23 -96 0 -116 3 -158 24 -54 26 -92 76 -102 134 l-7 37
-159 0 -160 0 7 -52 c26 -217 130 -332 352 -389 93 -24 303 -26 405 -4 177 37
297 135 348 282 27 80 33 149 19 218 -42 203 -160 292 -483 364 -224 50 -276
81 -285 169 -6 68 15 104 80 136 40 20 67 26 118 26 120 0 196 -43 225 -126
l13 -39 151 -3 151 -3 0 33 c0 49 -24 130 -56 189 -35 63 -116 131 -194 160
-123 47 -298 60 -435 33z"/>
<path d="M2650 5080 l0 -710 495 0 496 0 -3 141 -3 140 -327 -1 -328 -1 0 161
0 160 288 0 287 0 -3 125 -3 125 -290 0 -289 0 0 145 0 145 330 0 330 0 0 63
c0 35 -3 98 -6 140 l-7 77 -483 0 -484 0 0 -710z"/>
<path d="M3827 5784 c-3 -4 -6 -323 -7 -709 l0 -703 151 -1 151 -2 -6 518 c-3
285 -8 541 -11 568 -5 47 118 -297 313 -877 l67 -198 135 0 135 0 31 98 c17
53 90 255 162 447 71 193 140 386 152 430 12 44 25 88 28 98 4 10 6 -230 4
-533 l-3 -550 156 0 155 0 0 710 0 710 -226 -2 -226 -3 -39 -110 c-52 -148
-220 -654 -261 -788 l-33 -108 -44 148 c-24 81 -98 308 -166 503 l-122 355
-245 3 c-134 1 -247 -1 -251 -4z"/>
<path d="M6570 4179 c-569 -62 -1041 -387 -1291 -890 -227 -457 -221 -981 17
-1449 283 -554 866 -893 1494 -867 746 31 1360 555 1522 1300 19 87 22 132 22
307 0 173 -4 221 -22 307 -126 584 -528 1039 -1079 1219 -197 65 -469 95 -663
73z m1147 -872 c120 -120 123 -124 123 -167 l0 -45 -673 -672 -672 -673 -45 0
-45 0 -382 383 -383 382 0 45 c0 43 3 47 118 162 169 169 134 180 442 -128
l247 -245 535 540 c524 530 535 541 573 541 37 0 47 -8 162 -123z"/>
<path d="M2693 3870 c-17 -10 -37 -29 -44 -42 -10 -17 -13 -206 -16 -788 -4
-725 -3 -767 14 -800 39 -74 -34 -70 1126 -70 l1039 0 -6 28 c-49 238 -45 533
8 787 64 300 215 616 405 843 l52 62 -1273 0 c-1243 0 -1274 -1 -1305 -20z"/>
</g>
</svg>
