<?xml version="1.0" standalone="no"?>
<!DOCTYPE svg PUBLIC "-//W3C//DTD SVG 20010904//EN"
 "http://www.w3.org/TR/2001/REC-SVG-20010904/DTD/svg10.dtd">
<svg version="1.0" xmlns="http://www.w3.org/2000/svg"
 width="200.000000pt" height="200.000000pt" viewBox="0 0 200.000000 200.000000"
 preserveAspectRatio="xMidYMid meet">

<g transform="translate(0.000000,200.000000) scale(0.100000,-0.100000)"
fill="#000000" stroke="none">
<path d="M805 1785 c-21 -20 -25 -34 -25 -80 l0 -55 -50 0 c-41 0 -56 -5 -75
-25 l-25 -24 0 -581 0 -581 25 -24 c24 -24 28 -25 184 -25 l159 0 37 -49 c44
-62 137 -125 205 -141 85 -20 194 -9 266 28 232 118 282 423 99 605 -51 52
-134 96 -194 104 l-41 6 0 319 c0 388 0 388 -106 388 l-44 0 0 55 c0 46 -4 60
-25 80 -24 25 -27 25 -195 25 -168 0 -171 0 -195 -25z m353 -87 l3 -48 -160 0
-161 0 0 50 0 51 158 -3 157 -3 3 -47z m150 -431 c2 -249 0 -318 -10 -321 -7
-3 -25 -7 -40 -10 l-28 -6 0 110 0 110 -230 0 -231 0 3 -127 3 -128 178 -5
177 -5 -49 -42 -50 -43 -131 0 -131 0 3 -127 3 -128 91 -3 91 -3 10 -45 10
-45 -141 3 -141 3 -3 555 c-1 305 0 561 3 568 3 10 70 12 307 10 l303 -3 3
-318z m158 -412 c71 -31 125 -83 159 -152 24 -48 29 -71 29 -133 1 -66 -4 -85
-32 -143 -60 -122 -165 -183 -302 -175 -118 7 -207 64 -266 170 -26 48 -29 62
-29 143 0 106 20 156 88 224 97 98 227 123 353 66z"/>
<path d="M777 1504 c-4 -4 -7 -63 -7 -131 l0 -123 230 0 231 0 -3 128 -3 127
-221 3 c-121 1 -223 -1 -227 -4z"/>
<path d="M1307 804 c-4 -4 -7 -62 -7 -129 l0 -121 66 -58 c68 -58 97 -67 102
-31 2 14 -14 35 -52 68 l-55 48 -3 112 c-3 104 -4 112 -23 115 -12 2 -24 0
-28 -4z"/>
</g>
</svg>
